<svg width="66" height="66" viewBox="0 0 66 66" fill="none" xmlns="http://www.w3.org/2000/svg">
<g opacity="0.8">
<path d="M0.531803 37.8234C-0.231223 30.8288 -0.173 23.769 0.705557 16.788C0.765502 16.3433 0.915446 15.9156 1.14619 15.5307C1.37693 15.1458 1.68364 14.8119 2.04765 14.5494C2.41167 14.287 2.82534 14.1013 3.26342 14.004C3.7015 13.9067 4.15486 13.8997 4.59576 13.9833C7.92495 14.5807 7.47066 16.788 7.47066 16.788C6.83498 23.6414 6.96375 30.5442 7.8548 37.369C7.73864 38.2215 7.36403 39.0179 6.78129 39.6508C6.19855 40.2837 5.43573 40.7227 4.59576 40.9086C1.72093 41.3995 0.528893 37.8234 0.528893 37.8234" fill="#425473"/>
<path d="M9.92482 36.7773C8.30658 32.1304 7.57035 27.2222 7.75398 22.305C8.10847 15.7379 9.20364 9.23176 11.0187 2.91045C11.4005 2.21249 11.9885 1.64939 12.7023 1.29802C13.4161 0.946641 14.2209 0.824108 15.007 0.94715L48.7589 0.94715C49.8145 0.92928 50.8524 1.21921 51.746 1.78154C52.6395 2.34386 53.35 3.15423 53.7905 4.11367C55.2648 10.072 56.1349 16.1638 56.3877 22.2966C56.6162 27.1982 55.9587 32.1008 54.4468 36.7689C54.2873 39.4211 53.7441 42.0361 52.8341 44.5323C52.5282 45.2767 52.0498 45.9378 51.4383 46.461C50.8268 46.9842 50.0997 47.3547 49.317 47.5418C38.0329 50.1838 26.2911 50.1838 15.007 47.5418C14.2514 47.3396 13.5544 46.9615 12.9729 46.4385C12.3914 45.9155 11.9418 45.2623 11.6609 44.5323C10.741 42.0357 10.1572 39.4279 9.92482 36.7773Z" fill="#00969E"/>
<g filter="url(#filter0_d_40_13)">
<path d="M12.3367 53.6616C11.9639 53.5247 11.6468 53.2685 11.4348 52.9326C11.2227 52.5968 11.1277 52.2003 11.1644 51.8049C11.1644 51.8049 10.9765 41.4695 11.1644 40.7122C11.3524 39.9549 11.7787 39.9354 11.7787 39.9354C24.9285 43.3958 38.7543 43.36 51.886 39.8316C51.886 39.8316 52.6966 39.6268 53.008 40.6954C53.1687 43.8477 53.1687 47.0063 53.008 50.1586C53.0386 51.4634 52.6449 52.7428 51.886 53.8047C38.9958 57.7771 25.2013 57.7283 12.3396 53.6645" fill="#FF6464"/>
</g>
<g filter="url(#filter1_d_40_13)">
<path d="M12.3367 53.6616C11.9639 53.5247 11.6468 53.2685 11.4348 52.9326C11.2227 52.5968 11.1277 52.2003 11.1644 51.8049C11.1644 51.8049 10.9765 41.4695 11.1644 40.7122C11.3524 39.9549 11.7787 39.9354 11.7787 39.9354C24.9285 43.3958 38.7543 43.36 51.886 39.8316C51.886 39.8316 52.6966 39.6268 53.008 40.6954C53.1687 43.8477 53.1687 47.0063 53.008 50.1586C53.0386 51.4634 52.6449 52.7428 51.886 53.8047C38.9958 57.7771 25.2013 57.7283 12.3396 53.6645" fill="#4AA6AB"/>
</g>
<g filter="url(#filter2_d_40_13)">
<path d="M12.2498 53.8046C11.8694 53.6583 11.5477 53.3911 11.3343 53.0439C11.1209 52.6967 11.0278 52.2888 11.0692 51.8834C11.0979 51.3947 11.2514 50.9216 11.5151 50.5091C11.7788 50.0966 12.1438 49.7587 12.5753 49.5275C26.4305 52.9885 37.8738 54.2955 51.314 49.6229C51.5498 49.6042 51.787 49.6354 52.01 49.7146C52.233 49.7939 52.4367 49.9192 52.608 50.0825C52.7792 50.2458 52.914 50.4435 53.0037 50.6625C53.0934 50.8815 53.136 51.1169 53.1285 51.3534C53.2265 51.8446 53.1762 52.3537 52.9839 52.8162C52.7916 53.2787 52.466 53.6735 52.0487 53.9505C39.0937 58.0657 25.1743 58.0147 12.2498 53.8046Z" fill="white"/>
</g>
<path d="M65.2151 16.1787C65.8592 23.1862 65.6809 30.245 64.6837 37.211C64.6162 37.6548 64.459 38.0799 64.2217 38.4609C63.9844 38.8419 63.672 39.1706 63.3036 39.4268C62.9351 39.6831 62.5183 39.8617 62.0785 39.9515C61.6388 40.0414 61.1853 40.0407 60.7458 39.9496C57.4268 39.2956 57.9186 37.096 57.9186 37.096C58.6708 30.2535 58.6594 23.3485 57.8844 16.5085C58.015 15.658 58.4032 14.868 58.9966 14.245C59.5901 13.622 60.3604 13.196 61.2036 13.0243C64.0867 12.5823 65.218 16.1787 65.218 16.1787" fill="#425473"/>
</g>
<defs>
<filter id="filter0_d_40_13" x="5.08093" y="36.8159" width="54.0475" height="28.9327" filterUnits="userSpaceOnUse" color-interpolation-filters="sRGB">
<feFlood flood-opacity="0" result="BackgroundImageFix"/>
<feColorMatrix in="SourceAlpha" type="matrix" values="0 0 0 0 0 0 0 0 0 0 0 0 0 0 0 0 0 0 127 0" result="hardAlpha"/>
<feOffset dy="3"/>
<feGaussianBlur stdDeviation="3"/>
<feColorMatrix type="matrix" values="0 0 0 0 0 0 0 0 0 0 0 0 0 0 0 0 0 0 0.161 0"/>
<feBlend mode="normal" in2="BackgroundImageFix" result="effect1_dropShadow_40_13"/>
<feBlend mode="normal" in="SourceGraphic" in2="effect1_dropShadow_40_13" result="shape"/>
</filter>
<filter id="filter1_d_40_13" x="5.08093" y="36.8159" width="54.0475" height="28.9327" filterUnits="userSpaceOnUse" color-interpolation-filters="sRGB">
<feFlood flood-opacity="0" result="BackgroundImageFix"/>
<feColorMatrix in="SourceAlpha" type="matrix" values="0 0 0 0 0 0 0 0 0 0 0 0 0 0 0 0 0 0 127 0" result="hardAlpha"/>
<feOffset dy="3"/>
<feGaussianBlur stdDeviation="3"/>
<feColorMatrix type="matrix" values="0 0 0 0 0 0 0 0 0 0 0 0 0 0 0 0 0 0 0.161 0"/>
<feBlend mode="normal" in2="BackgroundImageFix" result="effect1_dropShadow_40_13"/>
<feBlend mode="normal" in="SourceGraphic" in2="effect1_dropShadow_40_13" result="shape"/>
</filter>
<filter id="filter2_d_40_13" x="5.05957" y="46.5275" width="54.1177" height="19.4725" filterUnits="userSpaceOnUse" color-interpolation-filters="sRGB">
<feFlood flood-opacity="0" result="BackgroundImageFix"/>
<feColorMatrix in="SourceAlpha" type="matrix" values="0 0 0 0 0 0 0 0 0 0 0 0 0 0 0 0 0 0 127 0" result="hardAlpha"/>
<feOffset dy="3"/>
<feGaussianBlur stdDeviation="3"/>
<feColorMatrix type="matrix" values="0 0 0 0 0 0 0 0 0 0 0 0 0 0 0 0 0 0 0.161 0"/>
<feBlend mode="normal" in2="BackgroundImageFix" result="effect1_dropShadow_40_13"/>
<feBlend mode="normal" in="SourceGraphic" in2="effect1_dropShadow_40_13" result="shape"/>
</filter>
</defs>
</svg>
