<svg width="66" height="60" viewBox="0 0 66 60" fill="none" xmlns="http://www.w3.org/2000/svg">
<path d="M65.2682 22.1766C66.0313 29.1712 65.973 36.231 65.0945 43.212C65.0345 43.6567 64.8846 44.0844 64.6539 44.4693C64.4231 44.8542 64.1164 45.1881 63.7524 45.4506C63.3884 45.713 62.9747 45.8987 62.5366 45.996C62.0986 46.0933 61.6452 46.1003 61.2043 46.0167C57.8751 45.4193 58.3294 43.212 58.3294 43.212C58.9651 36.3586 58.8363 29.4558 57.9453 22.631C58.0614 21.7785 58.436 20.9821 59.0188 20.3492C59.6015 19.7163 60.3643 19.2773 61.2043 19.0914C64.0791 18.6005 65.2712 22.1766 65.2712 22.1766" fill="#425473"/>
<path d="M55.8753 23.2227C57.4936 27.8696 58.2298 32.7778 58.0462 37.695C57.6917 44.2622 56.5965 50.7683 54.7815 57.0896C54.3996 57.7875 53.8117 58.3506 53.0979 58.702C52.3841 59.0534 51.5792 59.1759 50.7932 59.0529H17.0413C15.9857 59.0707 14.9477 58.7808 14.0542 58.2185C13.1607 57.6562 12.4502 56.8458 12.0097 55.8864C10.5354 49.928 9.66529 43.8362 9.4125 37.7034C9.18398 32.8019 9.84146 27.8993 11.3534 23.2311C11.5129 20.579 12.0561 17.9639 12.9661 15.4677C13.272 14.7233 13.7504 14.0622 14.3619 13.539C14.9734 13.0158 15.7004 12.6453 16.4832 12.4582C27.7673 9.81618 39.5091 9.81618 50.7932 12.4582C51.5488 12.6604 52.2458 13.0385 52.8273 13.5615C53.4088 14.0845 53.8584 14.7377 54.1392 15.4677C55.0592 17.9643 55.643 20.5722 55.8753 23.2227Z" fill="#00969E"/>
<g filter="url(#filter0_d_40_2)">
<path d="M53.4633 6.33842C53.8361 6.47529 54.1533 6.73152 54.3653 7.06733C54.5773 7.40314 54.6723 7.79965 54.6356 8.1951C54.6356 8.1951 54.8235 18.5305 54.6356 19.2878C54.4477 20.045 54.0214 20.0646 54.0214 20.0646C40.8716 16.6042 27.0458 16.6399 13.914 20.1684C13.914 20.1684 13.1034 20.3731 12.7921 19.3045C12.6314 16.1522 12.6314 12.9937 12.7921 9.84139C12.7614 8.53661 13.1552 7.25716 13.914 6.1953C26.8042 2.22282 40.5987 2.2717 53.4604 6.33551" fill="#4AA6AB"/>
</g>
<g filter="url(#filter1_d_40_2)">
<path d="M53.4633 6.33842C53.8361 6.47529 54.1533 6.73152 54.3653 7.06733C54.5773 7.40314 54.6723 7.79965 54.6356 8.1951C54.6356 8.1951 54.8235 18.5305 54.6356 19.2878C54.4477 20.045 54.0214 20.0646 54.0214 20.0646C40.8716 16.6042 27.0458 16.6399 13.914 20.1684C13.914 20.1684 13.1034 20.3731 12.7921 19.3045C12.6314 16.1522 12.6314 12.9937 12.7921 9.84139C12.7614 8.53661 13.1552 7.25716 13.914 6.1953C26.8042 2.22282 40.5987 2.2717 53.4604 6.33551" fill="#4AA6AB"/>
</g>
<g filter="url(#filter2_d_40_2)">
<path d="M53.5502 6.1954C53.9306 6.34166 54.2523 6.60894 54.4657 6.95615C54.6791 7.30335 54.7722 7.71118 54.7309 8.11662C54.7022 8.60531 54.5486 9.07844 54.285 9.4909C54.0213 9.90335 53.6563 10.2413 53.2248 10.4725C39.3695 7.01146 27.9263 5.70448 14.4861 10.3771C14.2502 10.3958 14.013 10.3646 13.7901 10.2854C13.5671 10.2061 13.3633 10.0808 13.1921 9.91749C13.0209 9.75419 12.886 9.55648 12.7963 9.33751C12.7066 9.11855 12.6641 8.88312 12.6715 8.64661C12.5735 8.15542 12.6239 7.64631 12.8162 7.18382C13.0085 6.72134 13.334 6.32648 13.7514 6.04955C26.7064 1.93425 40.6257 1.98527 53.5502 6.1954Z" fill="white"/>
</g>
<path d="M0.584978 43.8213C-0.0591401 36.8138 0.1191 29.755 1.11633 22.789C1.18384 22.3452 1.34105 21.9201 1.57834 21.5391C1.81563 21.1581 2.12801 20.8294 2.49649 20.5732C2.86496 20.3169 3.28179 20.1383 3.72152 20.0485C4.16125 19.9586 4.61474 19.9593 5.05421 20.0504C8.37325 20.7044 7.88143 22.904 7.88143 22.904C7.12925 29.7465 7.14067 36.6515 7.9157 43.4915C7.78504 44.342 7.3969 45.132 6.8034 45.755C6.2099 46.378 5.43961 46.804 4.59648 46.9757C1.71331 47.4177 0.582068 43.8213 0.582068 43.8213" fill="#425473"/>
<defs>
<filter id="filter0_d_40_2" x="6.67157" y="0.251381" width="54.0475" height="28.9327" filterUnits="userSpaceOnUse" color-interpolation-filters="sRGB">
<feFlood flood-opacity="0" result="BackgroundImageFix"/>
<feColorMatrix in="SourceAlpha" type="matrix" values="0 0 0 0 0 0 0 0 0 0 0 0 0 0 0 0 0 0 127 0" result="hardAlpha"/>
<feOffset dy="3"/>
<feGaussianBlur stdDeviation="3"/>
<feColorMatrix type="matrix" values="0 0 0 0 0 0 0 0 0 0 0 0 0 0 0 0 0 0 0.161 0"/>
<feBlend mode="normal" in2="BackgroundImageFix" result="effect1_dropShadow_40_2"/>
<feBlend mode="normal" in="SourceGraphic" in2="effect1_dropShadow_40_2" result="shape"/>
</filter>
<filter id="filter1_d_40_2" x="6.67157" y="0.251381" width="54.0475" height="28.9327" filterUnits="userSpaceOnUse" color-interpolation-filters="sRGB">
<feFlood flood-opacity="0" result="BackgroundImageFix"/>
<feColorMatrix in="SourceAlpha" type="matrix" values="0 0 0 0 0 0 0 0 0 0 0 0 0 0 0 0 0 0 127 0" result="hardAlpha"/>
<feOffset dy="3"/>
<feGaussianBlur stdDeviation="3"/>
<feColorMatrix type="matrix" values="0 0 0 0 0 0 0 0 0 0 0 0 0 0 0 0 0 0 0.161 0"/>
<feBlend mode="normal" in2="BackgroundImageFix" result="effect1_dropShadow_40_2"/>
<feBlend mode="normal" in="SourceGraphic" in2="effect1_dropShadow_40_2" result="shape"/>
</filter>
<filter id="filter2_d_40_2" x="6.62274" y="0" width="54.1177" height="19.4725" filterUnits="userSpaceOnUse" color-interpolation-filters="sRGB">
<feFlood flood-opacity="0" result="BackgroundImageFix"/>
<feColorMatrix in="SourceAlpha" type="matrix" values="0 0 0 0 0 0 0 0 0 0 0 0 0 0 0 0 0 0 127 0" result="hardAlpha"/>
<feOffset dy="3"/>
<feGaussianBlur stdDeviation="3"/>
<feColorMatrix type="matrix" values="0 0 0 0 0 0 0 0 0 0 0 0 0 0 0 0 0 0 0.161 0"/>
<feBlend mode="normal" in2="BackgroundImageFix" result="effect1_dropShadow_40_2"/>
<feBlend mode="normal" in="SourceGraphic" in2="effect1_dropShadow_40_2" result="shape"/>
</filter>
</defs>
</svg>
