<svg width="66" height="66" viewBox="0 0 66 66" fill="none" xmlns="http://www.w3.org/2000/svg">
<g opacity="0.8">
<path d="M0.531799 37.8233C-0.231226 30.8288 -0.173004 23.769 0.705553 16.788C0.765498 16.3433 0.915442 15.9155 1.14619 15.5307C1.37693 15.1458 1.68364 14.8119 2.04765 14.5494C2.41166 14.287 2.82534 14.1013 3.26341 14.004C3.70149 13.9067 4.15486 13.8997 4.59575 13.9833C7.92495 14.5807 7.47065 16.788 7.47065 16.788C6.83497 23.6414 6.96374 30.5442 7.85479 37.369C7.73863 38.2214 7.36403 39.0179 6.78129 39.6508C6.19855 40.2836 5.43572 40.7226 4.59575 40.9086C1.72093 41.3995 0.528889 37.8233 0.528889 37.8233" fill="#425473"/>
<path d="M9.9247 36.7773C8.30645 32.1304 7.57022 27.2222 7.75385 22.305C8.10834 15.7378 9.20351 9.23175 11.0185 2.91044C11.4004 2.21248 11.9884 1.64938 12.7022 1.29801C13.416 0.94663 14.2208 0.824097 15.0068 0.947139L48.7587 0.947139C49.8143 0.929269 50.8523 1.2192 51.7458 1.78153C52.6394 2.34385 53.3498 3.15422 53.7904 4.11366C55.2646 10.072 56.1348 16.1638 56.3875 22.2966C56.6161 27.1982 55.9586 32.1007 54.4467 36.7689C54.2872 39.4211 53.7439 42.0361 52.834 44.5323C52.5281 45.2767 52.0497 45.9378 51.4382 46.461C50.8267 46.9842 50.0996 47.3547 49.3169 47.5418C38.0328 50.1838 26.2909 50.1838 15.0068 47.5418C14.2513 47.3396 13.5543 46.9615 12.9728 46.4385C12.3912 45.9155 11.9417 45.2623 11.6608 44.5323C10.7409 42.0357 10.1571 39.4279 9.9247 36.7773Z" fill="#415372"/>
<g filter="url(#filter0_d_3_14386)">
<path d="M12.3367 53.6615C11.9639 53.5247 11.6468 53.2684 11.4347 52.9326C11.2227 52.5968 11.1277 52.2003 11.1644 51.8048C11.1644 51.8048 10.9765 41.4694 11.1644 40.7122C11.3523 39.9549 11.7786 39.9353 11.7786 39.9353C24.9285 43.3958 38.7543 43.36 51.886 39.8316C51.886 39.8316 52.6966 39.6268 53.0079 40.6954C53.1686 43.8477 53.1686 47.0062 53.0079 50.1586C53.0386 51.4633 52.6449 52.7428 51.886 53.8046C38.9958 57.7771 25.2013 57.7282 12.3396 53.6644" fill="#7395CE"/>
</g>
<g filter="url(#filter1_d_3_14386)">
<path d="M12.3367 53.6615C11.9639 53.5247 11.6468 53.2684 11.4347 52.9326C11.2227 52.5968 11.1277 52.2003 11.1644 51.8048C11.1644 51.8048 10.9765 41.4694 11.1644 40.7122C11.3523 39.9549 11.7786 39.9353 11.7786 39.9353C24.9285 43.3958 38.7543 43.36 51.886 39.8316C51.886 39.8316 52.6966 39.6268 53.0079 40.6954C53.1686 43.8477 53.1686 47.0062 53.0079 50.1586C53.0386 51.4633 52.6449 52.7428 51.886 53.8046C38.9958 57.7771 25.2013 57.7282 12.3396 53.6644" fill="#7395CE"/>
</g>
<g filter="url(#filter2_d_3_14386)">
<path d="M12.2498 53.8046C11.8694 53.6583 11.5477 53.3911 11.3343 53.0439C11.1209 52.6967 11.0278 52.2888 11.0691 51.8834C11.0978 51.3947 11.2514 50.9216 11.515 50.5091C11.7787 50.0966 12.1437 49.7587 12.5752 49.5275C26.4305 52.9885 37.8737 54.2955 51.3139 49.6229C51.5498 49.6042 51.787 49.6354 52.0099 49.7146C52.2329 49.7939 52.4366 49.9192 52.6079 50.0825C52.7791 50.2458 52.914 50.4435 53.0037 50.6625C53.0934 50.8815 53.1359 51.1169 53.1285 51.3534C53.2265 51.8446 53.1761 52.3537 52.9838 52.8162C52.7915 53.2787 52.466 53.6735 52.0486 53.9505C39.0936 58.0657 25.1743 58.0147 12.2498 53.8046Z" fill="white"/>
</g>
<path d="M65.215 16.1787C65.8591 23.1862 65.6808 30.245 64.6836 37.211C64.6161 37.6547 64.4589 38.0799 64.2216 38.4609C63.9843 38.8419 63.6719 39.1705 63.3034 39.4268C62.935 39.6831 62.5181 39.8617 62.0784 39.9515C61.6387 40.0414 61.1852 40.0407 60.7457 39.9496C57.4267 39.2956 57.9185 37.096 57.9185 37.096C58.6707 30.2535 58.6593 23.3485 57.8842 16.5085C58.0149 15.658 58.403 14.868 58.9965 14.245C59.59 13.622 60.3603 13.196 61.2035 13.0243C64.0866 12.5823 65.2179 16.1787 65.2179 16.1787" fill="#425473"/>
</g>
<defs>
<filter id="filter0_d_3_14386" x="5.08092" y="36.8159" width="54.0475" height="28.9327" filterUnits="userSpaceOnUse" color-interpolation-filters="sRGB">
<feFlood flood-opacity="0" result="BackgroundImageFix"/>
<feColorMatrix in="SourceAlpha" type="matrix" values="0 0 0 0 0 0 0 0 0 0 0 0 0 0 0 0 0 0 127 0" result="hardAlpha"/>
<feOffset dy="3"/>
<feGaussianBlur stdDeviation="3"/>
<feColorMatrix type="matrix" values="0 0 0 0 0 0 0 0 0 0 0 0 0 0 0 0 0 0 0.161 0"/>
<feBlend mode="normal" in2="BackgroundImageFix" result="effect1_dropShadow_3_14386"/>
<feBlend mode="normal" in="SourceGraphic" in2="effect1_dropShadow_3_14386" result="shape"/>
</filter>
<filter id="filter1_d_3_14386" x="5.08092" y="36.8159" width="54.0475" height="28.9327" filterUnits="userSpaceOnUse" color-interpolation-filters="sRGB">
<feFlood flood-opacity="0" result="BackgroundImageFix"/>
<feColorMatrix in="SourceAlpha" type="matrix" values="0 0 0 0 0 0 0 0 0 0 0 0 0 0 0 0 0 0 127 0" result="hardAlpha"/>
<feOffset dy="3"/>
<feGaussianBlur stdDeviation="3"/>
<feColorMatrix type="matrix" values="0 0 0 0 0 0 0 0 0 0 0 0 0 0 0 0 0 0 0.161 0"/>
<feBlend mode="normal" in2="BackgroundImageFix" result="effect1_dropShadow_3_14386"/>
<feBlend mode="normal" in="SourceGraphic" in2="effect1_dropShadow_3_14386" result="shape"/>
</filter>
<filter id="filter2_d_3_14386" x="5.05952" y="46.5275" width="54.1177" height="19.4725" filterUnits="userSpaceOnUse" color-interpolation-filters="sRGB">
<feFlood flood-opacity="0" result="BackgroundImageFix"/>
<feColorMatrix in="SourceAlpha" type="matrix" values="0 0 0 0 0 0 0 0 0 0 0 0 0 0 0 0 0 0 127 0" result="hardAlpha"/>
<feOffset dy="3"/>
<feGaussianBlur stdDeviation="3"/>
<feColorMatrix type="matrix" values="0 0 0 0 0 0 0 0 0 0 0 0 0 0 0 0 0 0 0.161 0"/>
<feBlend mode="normal" in2="BackgroundImageFix" result="effect1_dropShadow_3_14386"/>
<feBlend mode="normal" in="SourceGraphic" in2="effect1_dropShadow_3_14386" result="shape"/>
</filter>
</defs>
</svg>
