<svg width="66" height="60" viewBox="0 0 66 60" fill="none" xmlns="http://www.w3.org/2000/svg">
<path d="M65.2683 22.1766C66.0313 29.1712 65.9731 36.231 65.0945 43.212C65.0346 43.6567 64.8846 44.0844 64.6539 44.4693C64.4231 44.8542 64.1164 45.1881 63.7524 45.4506C63.3884 45.713 62.9747 45.8987 62.5366 45.996C62.0986 46.0933 61.6452 46.1003 61.2043 46.0167C57.8751 45.4193 58.3294 43.212 58.3294 43.212C58.9651 36.3586 58.8363 29.4558 57.9453 22.631C58.0614 21.7785 58.436 20.9821 59.0188 20.3492C59.6015 19.7163 60.3643 19.2773 61.2043 19.0914C64.0791 18.6005 65.2712 22.1766 65.2712 22.1766" fill="#425473"/>
<path d="M55.8753 23.2227C57.4935 27.8696 58.2298 32.7778 58.0461 37.695C57.6916 44.2622 56.5965 50.7683 54.7815 57.0896C54.3996 57.7875 53.8116 58.3506 53.0978 58.702C52.384 59.0534 51.5792 59.1759 50.7932 59.0529H17.0413C15.9857 59.0707 14.9477 58.7808 14.0541 58.2185C13.1606 57.6562 12.4502 56.8458 12.0096 55.8864C10.5353 49.928 9.66523 43.8362 9.41244 37.7034C9.18393 32.8019 9.84141 27.8993 11.3533 23.2311C11.5128 20.579 12.056 17.9639 12.966 15.4677C13.2719 14.7233 13.7503 14.0622 14.3618 13.539C14.9733 13.0158 15.7004 12.6453 16.4831 12.4582C27.7672 9.81619 39.5091 9.81619 50.7932 12.4582C51.5487 12.6604 52.2457 13.0385 52.8272 13.5615C53.4087 14.0845 53.8583 14.7377 54.1392 15.4677C55.0591 17.9643 55.6429 20.5722 55.8753 23.2227Z" fill="#415372"/>
<g filter="url(#filter0_d_3_7575)">
<path d="M53.4633 6.33842C53.8361 6.47529 54.1532 6.73152 54.3653 7.06733C54.5773 7.40314 54.6723 7.79966 54.6356 8.19511C54.6356 8.19511 54.8235 18.5305 54.6356 19.2878C54.4476 20.0451 54.0213 20.0646 54.0213 20.0646C40.8715 16.6042 27.0457 16.6399 13.914 20.1684C13.914 20.1684 13.1034 20.3732 12.792 19.3046C12.6314 16.1522 12.6314 12.9937 12.792 9.8414C12.7614 8.53662 13.1551 7.25717 13.914 6.19531C26.8042 2.22283 40.5987 2.27171 53.4604 6.33551" fill="#7395CE"/>
</g>
<g filter="url(#filter1_d_3_7575)">
<path d="M53.4633 6.33842C53.8361 6.47529 54.1532 6.73152 54.3653 7.06733C54.5773 7.40314 54.6723 7.79966 54.6356 8.19511C54.6356 8.19511 54.8235 18.5305 54.6356 19.2878C54.4476 20.0451 54.0213 20.0646 54.0213 20.0646C40.8715 16.6042 27.0457 16.6399 13.914 20.1684C13.914 20.1684 13.1034 20.3732 12.792 19.3046C12.6314 16.1522 12.6314 12.9937 12.792 9.8414C12.7614 8.53662 13.1551 7.25717 13.914 6.19531C26.8042 2.22283 40.5987 2.27171 53.4604 6.33551" fill="#7395CE"/>
</g>
<g filter="url(#filter2_d_3_7575)">
<path d="M53.5502 6.1954C53.9306 6.34166 54.2523 6.60894 54.4657 6.95615C54.6791 7.30335 54.7722 7.71118 54.7309 8.11662C54.7021 8.60531 54.5486 9.07844 54.2849 9.4909C54.0213 9.90335 53.6563 10.2413 53.2248 10.4725C39.3695 7.01146 27.9263 5.70448 14.4861 10.3771C14.2502 10.3958 14.013 10.3646 13.79 10.2854C13.5671 10.2061 13.3633 10.0808 13.1921 9.91749C13.0208 9.75419 12.886 9.55648 12.7963 9.33751C12.7066 9.11855 12.6641 8.88312 12.6715 8.64661C12.5735 8.15542 12.6239 7.64631 12.8162 7.18382C13.0084 6.72134 13.334 6.32648 13.7513 6.04955C26.7063 1.93425 40.6257 1.98527 53.5502 6.1954Z" fill="white"/>
</g>
<path d="M0.585035 43.8213C-0.0590829 36.8138 0.119157 29.755 1.11639 22.789C1.1839 22.3452 1.34111 21.9201 1.5784 21.5391C1.81568 21.1581 2.12807 20.8294 2.49654 20.5732C2.86502 20.3169 3.28185 20.1383 3.72158 20.0484C4.16131 19.9586 4.6148 19.9592 5.05427 20.0504C8.37331 20.7044 7.88149 22.904 7.88149 22.904C7.1293 29.7465 7.14073 36.6515 7.91575 43.4915C7.7851 44.342 7.39696 45.132 6.80346 45.755C6.20996 46.378 5.43967 46.804 4.59654 46.9757C1.71337 47.4177 0.582125 43.8213 0.582125 43.8213" fill="#425473"/>
<defs>
<filter id="filter0_d_3_7575" x="6.67152" y="0.251389" width="54.0475" height="28.9327" filterUnits="userSpaceOnUse" color-interpolation-filters="sRGB">
<feFlood flood-opacity="0" result="BackgroundImageFix"/>
<feColorMatrix in="SourceAlpha" type="matrix" values="0 0 0 0 0 0 0 0 0 0 0 0 0 0 0 0 0 0 127 0" result="hardAlpha"/>
<feOffset dy="3"/>
<feGaussianBlur stdDeviation="3"/>
<feColorMatrix type="matrix" values="0 0 0 0 0 0 0 0 0 0 0 0 0 0 0 0 0 0 0.161 0"/>
<feBlend mode="normal" in2="BackgroundImageFix" result="effect1_dropShadow_3_7575"/>
<feBlend mode="normal" in="SourceGraphic" in2="effect1_dropShadow_3_7575" result="shape"/>
</filter>
<filter id="filter1_d_3_7575" x="6.67152" y="0.251389" width="54.0475" height="28.9327" filterUnits="userSpaceOnUse" color-interpolation-filters="sRGB">
<feFlood flood-opacity="0" result="BackgroundImageFix"/>
<feColorMatrix in="SourceAlpha" type="matrix" values="0 0 0 0 0 0 0 0 0 0 0 0 0 0 0 0 0 0 127 0" result="hardAlpha"/>
<feOffset dy="3"/>
<feGaussianBlur stdDeviation="3"/>
<feColorMatrix type="matrix" values="0 0 0 0 0 0 0 0 0 0 0 0 0 0 0 0 0 0 0.161 0"/>
<feBlend mode="normal" in2="BackgroundImageFix" result="effect1_dropShadow_3_7575"/>
<feBlend mode="normal" in="SourceGraphic" in2="effect1_dropShadow_3_7575" result="shape"/>
</filter>
<filter id="filter2_d_3_7575" x="6.62273" y="0" width="54.1177" height="19.4725" filterUnits="userSpaceOnUse" color-interpolation-filters="sRGB">
<feFlood flood-opacity="0" result="BackgroundImageFix"/>
<feColorMatrix in="SourceAlpha" type="matrix" values="0 0 0 0 0 0 0 0 0 0 0 0 0 0 0 0 0 0 127 0" result="hardAlpha"/>
<feOffset dy="3"/>
<feGaussianBlur stdDeviation="3"/>
<feColorMatrix type="matrix" values="0 0 0 0 0 0 0 0 0 0 0 0 0 0 0 0 0 0 0.161 0"/>
<feBlend mode="normal" in2="BackgroundImageFix" result="effect1_dropShadow_3_7575"/>
<feBlend mode="normal" in="SourceGraphic" in2="effect1_dropShadow_3_7575" result="shape"/>
</filter>
</defs>
</svg>
