<svg width="94" height="57" viewBox="0 0 94 57" fill="none" xmlns="http://www.w3.org/2000/svg">
<g clip-path="url(#clip0_502_27)">
<path d="M44.5322 22.9095L26.2532 12.3555L25.6682 12.6935L25.3652 12.8685L43.6442 23.4225L44.5322 22.9095Z" fill="white"/>
<path d="M21.07 27.5379L16.539 24.9219C16.229 24.7439 16.039 24.4129 16.039 24.0559C16.039 23.6989 16.229 23.3689 16.539 23.1899L20.202 21.0749L15.677 18.4629L1.87695 26.4299L12.434 32.5229L21.07 27.5379Z" fill="white"/>
<path d="M33.946 47.2551L21.101 39.8391L21.096 39.8361L0.876953 28.1621V30.8231L46.148 56.9601V54.3001L33.952 47.2581L33.946 47.2551Z" fill="white"/>
<path d="M52.318 18.4153L34.038 7.86133L32.71 8.62833L50.988 19.1823L52.318 18.4153Z" fill="white"/>
<path d="M64.3852 16.1178L69.1752 13.3518L64.3792 10.5828L54.5752 4.92383L49.7842 7.68883L64.3852 16.1178Z" fill="white"/>
<path d="M40.6446 41.6566L29.7986 35.3926L23.6016 38.9726L34.4466 45.2336L40.6446 41.6566Z" fill="white"/>
<path d="M85.1196 30.6438L92.1226 26.6008L79.9786 19.5898L72.9766 23.6318L85.1196 30.6438Z" fill="white"/>
<path d="M85.6134 32.667L80.2364 35.77L80.2304 35.776L63.4474 45.465L63.4394 45.468L48.1484 54.296V56.959L93.1234 30.993V28.332L85.6214 32.664L85.6134 32.667Z" fill="white"/>
<path d="M40.5076 32.7979C40.1976 32.6199 40.0076 32.2889 40.0076 31.9319C40.0076 31.5759 40.1976 31.2449 40.5076 31.0669L57.2906 21.3779C57.5996 21.1989 57.9816 21.1989 58.2906 21.3779L79.7296 33.7539L83.1216 31.7959L70.4776 24.4959C70.1666 24.3179 69.9776 23.9869 69.9776 23.6299C69.9776 23.2729 70.1666 22.9429 70.4776 22.7639L77.9796 18.4329L71.1746 14.5049L64.8856 18.1369C64.7316 18.2259 64.5576 18.2709 64.3856 18.2709C64.2116 18.2709 64.0386 18.2259 63.8856 18.1369L47.2836 8.55289C46.9736 8.37489 46.7836 8.04389 46.7836 7.68689C46.7836 7.32989 46.9736 6.99989 47.2836 6.82089L52.5746 3.76689L46.8516 0.462891L36.0366 6.70689L54.8166 17.5499C55.1266 17.7279 55.3166 18.0589 55.3166 18.4159C55.3166 18.7729 55.1266 19.1029 54.8166 19.2819L51.4866 21.2029C51.3326 21.2929 51.1606 21.3369 50.9866 21.3369C50.8146 21.3369 50.6406 21.2919 50.4866 21.2029L30.7086 9.78389L28.2536 11.2009L47.0316 22.0459C47.3416 22.2239 47.5316 22.5549 47.5316 22.9119C47.5316 23.2689 47.3416 23.5989 47.0316 23.7779L44.1436 25.4459C43.9896 25.5349 43.8166 25.5799 43.6436 25.5799C43.4706 25.5799 43.2976 25.5349 43.1436 25.4459L23.3646 14.0259L17.6766 17.3099L22.7016 20.2109C23.0116 20.3889 23.2016 20.7199 23.2016 21.0769C23.2016 21.4339 23.0116 21.7639 22.7016 21.9429L19.0386 24.0579L23.5696 26.6739C23.8796 26.8519 24.0696 27.1829 24.0696 27.5399C24.0696 27.8969 23.8796 28.2269 23.5696 28.4059L14.4336 33.6789L21.5996 37.8179L29.2976 33.3729C29.6066 33.1949 29.9886 33.1949 30.2976 33.3729L43.1436 40.7909C43.4536 40.9689 43.6436 41.2999 43.6436 41.6569C43.6436 42.0129 43.4536 42.3439 43.1436 42.5229L36.4456 46.3879L47.1456 52.5659L60.9446 44.5999L40.5076 32.7979Z" fill="white"/>
<path d="M55.3828 29.7436C55.3828 28.5256 54.4788 27.2656 52.8928 26.2266L47.8848 29.1176L53.6558 32.4496C54.7728 31.6766 55.3828 30.7296 55.3828 29.7436Z" fill="white"/>
<path d="M43.0078 31.9344L62.9468 43.4444L77.7298 34.9104L57.7918 23.3984L54.7818 25.1354C56.4448 26.4654 57.3838 28.0864 57.3838 29.7434C57.3838 31.6074 56.2458 33.2914 54.1818 34.4824C54.1798 34.4844 54.1778 34.4844 54.1758 34.4844C54.1318 34.5104 54.0828 34.5254 54.0348 34.5434C53.9188 34.5884 53.7998 34.6174 53.6808 34.6174C53.5718 34.6174 53.4608 34.5924 53.3558 34.5544C53.2968 34.5344 53.2388 34.5154 53.1838 34.4844C53.1838 34.4844 53.1818 34.4844 53.1798 34.4824L45.8848 30.2714L43.0078 31.9344Z" fill="white"/>
</g>
<defs>
<clipPath id="clip0_502_27">
<rect width="94" height="57" fill="white"/>
</clipPath>
</defs>
</svg>
