<svg width="66" height="66" viewBox="0 0 66 66" fill="none" xmlns="http://www.w3.org/2000/svg">
<g opacity="0.8">
<path d="M0.531711 37.8233C-0.231314 30.8288 -0.173091 23.769 0.705465 16.788C0.765411 16.3433 0.915354 15.9155 1.1461 15.5307C1.37684 15.1458 1.68355 14.8119 2.04756 14.5494C2.41158 14.287 2.82525 14.1013 3.26333 14.004C3.7014 13.9067 4.15477 13.8997 4.59567 13.9833C7.92486 14.5807 7.47056 16.788 7.47056 16.788C6.83489 23.6414 6.96366 30.5442 7.85471 37.369C7.73855 38.2214 7.36394 39.0179 6.7812 39.6508C6.19846 40.2836 5.43564 40.7226 4.59567 40.9086C1.72084 41.3995 0.528801 37.8233 0.528801 37.8233" fill="#425473"/>
<path d="M9.92461 36.7773C8.30636 32.1304 7.57013 27.2222 7.75377 22.305C8.10826 15.7379 9.20343 9.23178 11.0185 2.91047C11.4003 2.21251 11.9883 1.64941 12.7021 1.29804C13.4159 0.94666 14.2207 0.824128 15.0067 0.94717L48.7586 0.94717C49.8143 0.929299 50.8522 1.21923 51.7458 1.78156C52.6393 2.34388 53.3497 3.15425 53.7903 4.11369C55.2646 10.072 56.1347 16.1638 56.3875 22.2966C56.616 27.1982 55.9585 32.1008 54.4466 36.7689C54.2871 39.4211 53.7439 42.0361 52.8339 44.5324C52.528 45.2768 52.0496 45.9378 51.4381 46.461C50.8266 46.9843 50.0995 47.3547 49.3168 47.5418C38.0327 50.1839 26.2908 50.1839 15.0067 47.5418C14.2512 47.3396 13.5542 46.9616 12.9727 46.4385C12.3912 45.9155 11.9416 45.2623 11.6607 44.5324C10.7408 42.0358 10.157 39.4279 9.92461 36.7773Z" fill="#25B14A"/>
<g filter="url(#filter0_d_3_14397)">
<path d="M12.3367 53.6616C11.9639 53.5247 11.6468 53.2685 11.4347 52.9327C11.2227 52.5968 11.1277 52.2003 11.1644 51.8049C11.1644 51.8049 10.9765 41.4695 11.1644 40.7122C11.3523 39.9549 11.7786 39.9354 11.7786 39.9354C24.9285 43.3958 38.7542 43.3601 51.886 39.8316C51.886 39.8316 52.6966 39.6268 53.0079 40.6954C53.1686 43.8477 53.1686 47.0063 53.0079 50.1586C53.0386 51.4634 52.6448 52.7428 51.886 53.8047C38.9958 57.7772 25.2013 57.7283 12.3396 53.6645" fill="#63FF8C"/>
</g>
<g filter="url(#filter1_d_3_14397)">
<path d="M12.3367 53.6616C11.9639 53.5247 11.6468 53.2685 11.4347 52.9327C11.2227 52.5968 11.1277 52.2003 11.1644 51.8049C11.1644 51.8049 10.9765 41.4695 11.1644 40.7122C11.3523 39.9549 11.7786 39.9354 11.7786 39.9354C24.9285 43.3958 38.7542 43.3601 51.886 39.8316C51.886 39.8316 52.6966 39.6268 53.0079 40.6954C53.1686 43.8477 53.1686 47.0063 53.0079 50.1586C53.0386 51.4634 52.6448 52.7428 51.886 53.8047C38.9958 57.7772 25.2013 57.7283 12.3396 53.6645" fill="#63FF8C"/>
</g>
<g filter="url(#filter2_d_3_14397)">
<path d="M12.2498 53.8046C11.8694 53.6583 11.5477 53.3911 11.3343 53.0439C11.1209 52.6967 11.0278 52.2888 11.0691 51.8834C11.0978 51.3947 11.2514 50.9216 11.515 50.5091C11.7787 50.0966 12.1437 49.7587 12.5752 49.5275C26.4305 52.9885 37.8737 54.2955 51.3139 49.6229C51.5498 49.6042 51.787 49.6354 52.0099 49.7146C52.2329 49.7939 52.4366 49.9192 52.6079 50.0825C52.7791 50.2458 52.914 50.4435 53.0037 50.6625C53.0934 50.8815 53.1359 51.1169 53.1285 51.3534C53.2265 51.8446 53.1761 52.3537 52.9838 52.8162C52.7915 53.2787 52.466 53.6735 52.0486 53.9505C39.0936 58.0657 25.1743 58.0147 12.2498 53.8046Z" fill="white"/>
</g>
<path d="M65.215 16.1787C65.8591 23.1862 65.6809 30.245 64.6837 37.211C64.6161 37.6547 64.4589 38.0799 64.2216 38.4609C63.9844 38.8419 63.672 39.1705 63.3035 39.4268C62.935 39.6831 62.5182 39.8617 62.0785 39.9515C61.6387 40.0414 61.1852 40.0407 60.7458 39.9496C57.4267 39.2956 57.9186 37.096 57.9186 37.096C58.6707 30.2535 58.6593 23.3485 57.8843 16.5085C58.0149 15.658 58.4031 14.868 58.9966 14.245C59.5901 13.622 60.3604 13.196 61.2035 13.0243C64.0867 12.5823 65.2179 16.1787 65.2179 16.1787" fill="#425473"/>
</g>
<defs>
<filter id="filter0_d_3_14397" x="5.0809" y="36.8159" width="54.0475" height="28.9327" filterUnits="userSpaceOnUse" color-interpolation-filters="sRGB">
<feFlood flood-opacity="0" result="BackgroundImageFix"/>
<feColorMatrix in="SourceAlpha" type="matrix" values="0 0 0 0 0 0 0 0 0 0 0 0 0 0 0 0 0 0 127 0" result="hardAlpha"/>
<feOffset dy="3"/>
<feGaussianBlur stdDeviation="3"/>
<feColorMatrix type="matrix" values="0 0 0 0 0 0 0 0 0 0 0 0 0 0 0 0 0 0 0.161 0"/>
<feBlend mode="normal" in2="BackgroundImageFix" result="effect1_dropShadow_3_14397"/>
<feBlend mode="normal" in="SourceGraphic" in2="effect1_dropShadow_3_14397" result="shape"/>
</filter>
<filter id="filter1_d_3_14397" x="5.0809" y="36.8159" width="54.0475" height="28.9327" filterUnits="userSpaceOnUse" color-interpolation-filters="sRGB">
<feFlood flood-opacity="0" result="BackgroundImageFix"/>
<feColorMatrix in="SourceAlpha" type="matrix" values="0 0 0 0 0 0 0 0 0 0 0 0 0 0 0 0 0 0 127 0" result="hardAlpha"/>
<feOffset dy="3"/>
<feGaussianBlur stdDeviation="3"/>
<feColorMatrix type="matrix" values="0 0 0 0 0 0 0 0 0 0 0 0 0 0 0 0 0 0 0.161 0"/>
<feBlend mode="normal" in2="BackgroundImageFix" result="effect1_dropShadow_3_14397"/>
<feBlend mode="normal" in="SourceGraphic" in2="effect1_dropShadow_3_14397" result="shape"/>
</filter>
<filter id="filter2_d_3_14397" x="5.05951" y="46.5275" width="54.1177" height="19.4725" filterUnits="userSpaceOnUse" color-interpolation-filters="sRGB">
<feFlood flood-opacity="0" result="BackgroundImageFix"/>
<feColorMatrix in="SourceAlpha" type="matrix" values="0 0 0 0 0 0 0 0 0 0 0 0 0 0 0 0 0 0 127 0" result="hardAlpha"/>
<feOffset dy="3"/>
<feGaussianBlur stdDeviation="3"/>
<feColorMatrix type="matrix" values="0 0 0 0 0 0 0 0 0 0 0 0 0 0 0 0 0 0 0.161 0"/>
<feBlend mode="normal" in2="BackgroundImageFix" result="effect1_dropShadow_3_14397"/>
<feBlend mode="normal" in="SourceGraphic" in2="effect1_dropShadow_3_14397" result="shape"/>
</filter>
</defs>
</svg>
