<svg width="63" height="66" viewBox="0 0 63 66" fill="none" xmlns="http://www.w3.org/2000/svg">
<path d="M25.1767 0.531742C32.1712 -0.231284 39.231 -0.173061 46.212 0.705496C46.6567 0.765441 47.0845 0.915385 47.4693 1.14613C47.8542 1.37687 48.1881 1.68358 48.4506 2.04759C48.713 2.41161 48.8987 2.82528 48.996 3.26336C49.0933 3.70144 49.1003 4.1548 49.0167 4.5957C48.4193 7.92489 46.212 7.47059 46.212 7.47059C39.3586 6.83492 32.4558 6.96369 25.631 7.85474C24.7786 7.73858 23.9821 7.36397 23.3492 6.78123C22.7164 6.19849 22.2774 5.43567 22.0914 4.5957C21.6005 1.72087 25.1767 0.528832 25.1767 0.528832" fill="#425473"/>
<path d="M26.2227 9.92464C30.8696 8.30639 35.7778 7.57016 40.695 7.7538C47.2622 8.10829 53.7683 9.20346 60.0896 11.0185C60.7875 11.4004 61.3506 11.9883 61.702 12.7021C62.0534 13.4159 62.1759 14.2208 62.0529 15.0068V48.7587C62.0707 49.8143 61.7808 50.8522 61.2185 51.7458C60.6562 52.6393 59.8458 53.3498 58.8863 53.7903C52.928 55.2646 46.8362 56.1347 40.7034 56.3875C35.8018 56.616 30.8993 55.9585 26.2311 54.4466C23.5789 54.2871 20.9639 53.7439 18.4677 52.8339C17.7233 52.528 17.0622 52.0496 16.539 51.4381C16.0158 50.8266 15.6453 50.0996 15.4582 49.3168C12.8162 38.0327 12.8162 26.2909 15.4582 15.0068C15.6604 14.2512 16.0385 13.5542 16.5615 12.9727C17.0845 12.3912 17.7377 11.9416 18.4677 11.6608C20.9643 10.7408 23.5721 10.157 26.2227 9.92464Z" fill="#25B14A"/>
<g filter="url(#filter0_d_63_24)">
<path d="M9.33844 12.3367C9.47531 11.9639 9.73154 11.6468 10.0673 11.4348C10.4032 11.2227 10.7997 11.1277 11.1951 11.1644C11.1951 11.1644 21.5305 10.9765 22.2878 11.1644C23.0451 11.3524 23.0646 11.7787 23.0646 11.7787C19.6042 24.9285 19.6399 38.7543 23.1684 51.886C23.1684 51.886 23.3732 52.6966 22.3046 53.008C19.1523 53.1687 15.9937 53.1687 12.8414 53.008C11.5366 53.0386 10.2572 52.6449 9.19533 51.886C5.22284 38.9958 5.27173 25.2013 9.33553 12.3396" fill="#63FF8C"/>
</g>
<g filter="url(#filter1_d_63_24)">
<path d="M9.33844 12.3367C9.47531 11.9639 9.73154 11.6468 10.0673 11.4348C10.4032 11.2227 10.7997 11.1277 11.1951 11.1644C11.1951 11.1644 21.5305 10.9765 22.2878 11.1644C23.0451 11.3524 23.0646 11.7787 23.0646 11.7787C19.6042 24.9285 19.6399 38.7543 23.1684 51.886C23.1684 51.886 23.3732 52.6966 22.3046 53.008C19.1523 53.1687 15.9937 53.1687 12.8414 53.008C11.5366 53.0386 10.2572 52.6449 9.19533 51.886C5.22284 38.9958 5.27173 25.2013 9.33553 12.3396" fill="#63FF8C"/>
</g>
<g filter="url(#filter2_d_63_24)">
<path d="M9.1954 12.2498C9.34166 11.8694 9.60894 11.5477 9.95615 11.3343C10.3033 11.1209 10.7112 11.0278 11.1166 11.0692C11.6053 11.0979 12.0784 11.2514 12.4909 11.5151C12.9034 11.7788 13.2413 12.1438 13.4725 12.5753C10.0115 26.4305 8.70448 37.8738 13.3771 51.314C13.3958 51.5498 13.3646 51.787 13.2854 52.01C13.2061 52.233 13.0808 52.4367 12.9175 52.608C12.7542 52.7792 12.5565 52.914 12.3375 53.0037C12.1185 53.0934 11.8831 53.136 11.6466 53.1285C11.1554 53.2265 10.6463 53.1762 10.1838 52.9839C9.72134 52.7916 9.32648 52.466 9.04955 52.0487C4.93425 39.0937 4.98527 25.1743 9.1954 12.2498Z" fill="white"/>
</g>
<path d="M46.8213 65.215C39.8138 65.8592 32.755 65.6809 25.789 64.6837C25.3453 64.6162 24.9201 64.459 24.5391 64.2217C24.1581 63.9844 23.8295 63.672 23.5732 63.3035C23.3169 62.9351 23.1383 62.5182 23.0485 62.0785C22.9586 61.6388 22.9593 61.1853 23.0504 60.7458C23.7044 57.4268 25.904 57.9186 25.904 57.9186C32.7465 58.6708 39.6515 58.6593 46.4915 57.8843C47.342 58.015 48.132 58.4031 48.755 58.9966C49.378 59.5901 49.804 60.3604 49.9757 61.2035C50.4177 64.0867 46.8213 65.218 46.8213 65.218" fill="#425473"/>
<defs>
<filter id="filter0_d_63_24" x="0.251404" y="8.08093" width="28.9327" height="54.0475" filterUnits="userSpaceOnUse" color-interpolation-filters="sRGB">
<feFlood flood-opacity="0" result="BackgroundImageFix"/>
<feColorMatrix in="SourceAlpha" type="matrix" values="0 0 0 0 0 0 0 0 0 0 0 0 0 0 0 0 0 0 127 0" result="hardAlpha"/>
<feOffset dy="3"/>
<feGaussianBlur stdDeviation="3"/>
<feColorMatrix type="matrix" values="0 0 0 0 0 0 0 0 0 0 0 0 0 0 0 0 0 0 0.161 0"/>
<feBlend mode="normal" in2="BackgroundImageFix" result="effect1_dropShadow_63_24"/>
<feBlend mode="normal" in="SourceGraphic" in2="effect1_dropShadow_63_24" result="shape"/>
</filter>
<filter id="filter1_d_63_24" x="0.251404" y="8.08093" width="28.9327" height="54.0475" filterUnits="userSpaceOnUse" color-interpolation-filters="sRGB">
<feFlood flood-opacity="0" result="BackgroundImageFix"/>
<feColorMatrix in="SourceAlpha" type="matrix" values="0 0 0 0 0 0 0 0 0 0 0 0 0 0 0 0 0 0 127 0" result="hardAlpha"/>
<feOffset dy="3"/>
<feGaussianBlur stdDeviation="3"/>
<feColorMatrix type="matrix" values="0 0 0 0 0 0 0 0 0 0 0 0 0 0 0 0 0 0 0.161 0"/>
<feBlend mode="normal" in2="BackgroundImageFix" result="effect1_dropShadow_63_24"/>
<feBlend mode="normal" in="SourceGraphic" in2="effect1_dropShadow_63_24" result="shape"/>
</filter>
<filter id="filter2_d_63_24" x="0" y="8.05957" width="19.4725" height="54.1177" filterUnits="userSpaceOnUse" color-interpolation-filters="sRGB">
<feFlood flood-opacity="0" result="BackgroundImageFix"/>
<feColorMatrix in="SourceAlpha" type="matrix" values="0 0 0 0 0 0 0 0 0 0 0 0 0 0 0 0 0 0 127 0" result="hardAlpha"/>
<feOffset dy="3"/>
<feGaussianBlur stdDeviation="3"/>
<feColorMatrix type="matrix" values="0 0 0 0 0 0 0 0 0 0 0 0 0 0 0 0 0 0 0.161 0"/>
<feBlend mode="normal" in2="BackgroundImageFix" result="effect1_dropShadow_63_24"/>
<feBlend mode="normal" in="SourceGraphic" in2="effect1_dropShadow_63_24" result="shape"/>
</filter>
</defs>
</svg>
