<svg width="63" height="66" viewBox="0 0 63 66" fill="none" xmlns="http://www.w3.org/2000/svg">
<g opacity="0.8">
<path d="M25.1766 0.531772C32.1711 -0.231253 39.231 -0.17303 46.2119 0.705526C46.6567 0.765471 47.0844 0.915415 47.4693 1.14616C47.8542 1.3769 48.1881 1.68361 48.4505 2.04762C48.713 2.41164 48.8986 2.82531 48.9959 3.26339C49.0932 3.70147 49.1003 4.15483 49.0166 4.59573C48.4192 7.92492 46.2119 7.47063 46.2119 7.47063C39.3586 6.83495 32.4558 6.96372 25.6309 7.85477C24.7785 7.73861 23.9821 7.364 23.3492 6.78126C22.7163 6.19852 22.2773 5.4357 22.0913 4.59573C21.6005 1.7209 25.1766 0.528862 25.1766 0.528862" fill="#425473"/>
<path d="M26.2227 9.92476C30.8696 8.30651 35.7778 7.57028 40.695 7.75392C47.2622 8.10841 53.7683 9.20358 60.0896 11.0186C60.7875 11.4005 61.3506 11.9884 61.702 12.7022C62.0534 13.416 62.1759 14.2209 62.0529 15.0069V48.7588C62.0707 49.8144 61.7808 50.8524 61.2185 51.7459C60.6562 52.6394 59.8458 53.3499 58.8863 53.7904C52.928 55.2647 46.8362 56.1348 40.7034 56.3876C35.8018 56.6161 30.8993 55.9586 26.2311 54.4468C23.5789 54.2872 20.9639 53.744 18.4677 52.834C17.7233 52.5281 17.0622 52.0497 16.539 51.4382C16.0158 50.8267 15.6453 50.0997 15.4582 49.3169C12.8162 38.0328 12.8162 26.291 15.4582 15.0069C15.6604 14.2514 16.0385 13.5544 16.5615 12.9728C17.0845 12.3913 17.7377 11.9417 18.4677 11.6609C20.9643 10.741 23.5721 10.1571 26.2227 9.92476Z" fill="#00969E"/>
<g filter="url(#filter0_d_40_13)">
<path d="M9.3385 12.3367C9.47537 11.9639 9.7316 11.6468 10.0674 11.4347C10.4032 11.2227 10.7997 11.1277 11.1952 11.1644C11.1952 11.1644 21.5306 10.9765 22.2879 11.1644C23.0451 11.3523 23.0647 11.7786 23.0647 11.7786C19.6043 24.9285 19.64 38.7542 23.1684 51.886C23.1684 51.886 23.3732 52.6966 22.3046 53.0079C19.1523 53.1686 15.9938 53.1686 12.8415 53.0079C11.5367 53.0386 10.2572 52.6448 9.19539 51.886C5.22291 38.9958 5.27179 25.2013 9.33559 12.3396" fill="#FF6464"/>
</g>
<g filter="url(#filter1_d_40_13)">
<path d="M9.3385 12.3367C9.47537 11.9639 9.7316 11.6468 10.0674 11.4347C10.4032 11.2227 10.7997 11.1277 11.1952 11.1644C11.1952 11.1644 21.5306 10.9765 22.2879 11.1644C23.0451 11.3523 23.0647 11.7786 23.0647 11.7786C19.6043 24.9285 19.64 38.7542 23.1684 51.886C23.1684 51.886 23.3732 52.6966 22.3046 53.0079C19.1523 53.1686 15.9938 53.1686 12.8415 53.0079C11.5367 53.0386 10.2572 52.6448 9.19539 51.886C5.22291 38.9958 5.27179 25.2013 9.33559 12.3396" fill="#4AA6AB"/>
</g>
<g filter="url(#filter2_d_40_13)">
<path d="M9.1954 12.2498C9.34166 11.8694 9.60894 11.5477 9.95615 11.3343C10.3033 11.1209 10.7112 11.0278 11.1166 11.0691C11.6053 11.0979 12.0784 11.2514 12.4909 11.5151C12.9034 11.7787 13.2413 12.1437 13.4725 12.5752C10.0115 26.4305 8.70448 37.8738 13.3771 51.3139C13.3958 51.5498 13.3646 51.787 13.2854 52.01C13.2061 52.2329 13.0808 52.4367 12.9175 52.6079C12.7542 52.7792 12.5565 52.914 12.3375 53.0037C12.1185 53.0934 11.8831 53.1359 11.6466 53.1285C11.1554 53.2265 10.6463 53.1761 10.1838 52.9838C9.72134 52.7916 9.32648 52.466 9.04955 52.0487C4.93425 39.0937 4.98527 25.1743 9.1954 12.2498Z" fill="white"/>
</g>
<path d="M46.8213 65.215C39.8138 65.8591 32.755 65.6809 25.789 64.6837C25.3453 64.6162 24.9201 64.4589 24.5391 64.2217C24.1581 63.9844 23.8295 63.672 23.5732 63.3035C23.3169 62.935 23.1383 62.5182 23.0485 62.0785C22.9586 61.6387 22.9593 61.1853 23.0504 60.7458C23.7044 57.4267 25.904 57.9186 25.904 57.9186C32.7465 58.6707 39.6515 58.6593 46.4915 57.8843C47.342 58.015 48.132 58.4031 48.755 58.9966C49.378 59.5901 49.804 60.3604 49.9757 61.2035C50.4177 64.0867 46.8213 65.2179 46.8213 65.2179" fill="#425473"/>
</g>
<defs>
<filter id="filter0_d_40_13" x="0.251465" y="8.0809" width="28.9327" height="54.0476" filterUnits="userSpaceOnUse" color-interpolation-filters="sRGB">
<feFlood flood-opacity="0" result="BackgroundImageFix"/>
<feColorMatrix in="SourceAlpha" type="matrix" values="0 0 0 0 0 0 0 0 0 0 0 0 0 0 0 0 0 0 127 0" result="hardAlpha"/>
<feOffset dy="3"/>
<feGaussianBlur stdDeviation="3"/>
<feColorMatrix type="matrix" values="0 0 0 0 0 0 0 0 0 0 0 0 0 0 0 0 0 0 0.161 0"/>
<feBlend mode="normal" in2="BackgroundImageFix" result="effect1_dropShadow_40_13"/>
<feBlend mode="normal" in="SourceGraphic" in2="effect1_dropShadow_40_13" result="shape"/>
</filter>
<filter id="filter1_d_40_13" x="0.251465" y="8.0809" width="28.9327" height="54.0476" filterUnits="userSpaceOnUse" color-interpolation-filters="sRGB">
<feFlood flood-opacity="0" result="BackgroundImageFix"/>
<feColorMatrix in="SourceAlpha" type="matrix" values="0 0 0 0 0 0 0 0 0 0 0 0 0 0 0 0 0 0 127 0" result="hardAlpha"/>
<feOffset dy="3"/>
<feGaussianBlur stdDeviation="3"/>
<feColorMatrix type="matrix" values="0 0 0 0 0 0 0 0 0 0 0 0 0 0 0 0 0 0 0.161 0"/>
<feBlend mode="normal" in2="BackgroundImageFix" result="effect1_dropShadow_40_13"/>
<feBlend mode="normal" in="SourceGraphic" in2="effect1_dropShadow_40_13" result="shape"/>
</filter>
<filter id="filter2_d_40_13" x="0" y="8.05956" width="19.4725" height="54.1177" filterUnits="userSpaceOnUse" color-interpolation-filters="sRGB">
<feFlood flood-opacity="0" result="BackgroundImageFix"/>
<feColorMatrix in="SourceAlpha" type="matrix" values="0 0 0 0 0 0 0 0 0 0 0 0 0 0 0 0 0 0 127 0" result="hardAlpha"/>
<feOffset dy="3"/>
<feGaussianBlur stdDeviation="3"/>
<feColorMatrix type="matrix" values="0 0 0 0 0 0 0 0 0 0 0 0 0 0 0 0 0 0 0.161 0"/>
<feBlend mode="normal" in2="BackgroundImageFix" result="effect1_dropShadow_40_13"/>
<feBlend mode="normal" in="SourceGraphic" in2="effect1_dropShadow_40_13" result="shape"/>
</filter>
</defs>
</svg>
