<svg width="63" height="66" viewBox="0 0 63 66" fill="none" xmlns="http://www.w3.org/2000/svg">
<path d="M25.1766 0.531927C32.1711 -0.231098 39.2309 -0.172875 46.2119 0.705681C46.6567 0.765627 47.0844 0.91557 47.4693 1.14631C47.8542 1.37706 48.1881 1.68377 48.4505 2.04778C48.713 2.41179 48.8986 2.82546 48.9959 3.26354C49.0932 3.70162 49.1003 4.15499 49.0166 4.59588C48.4192 7.92507 46.2119 7.47078 46.2119 7.47078C39.3586 6.8351 32.4558 6.96387 25.6309 7.85492C24.7785 7.73876 23.9821 7.36415 23.3492 6.78141C22.7163 6.19867 22.2773 5.43585 22.0913 4.59588C21.6005 1.72105 25.1766 0.529017 25.1766 0.529017" fill="#425473"/>
<path d="M26.2226 9.92469C30.8695 8.30644 35.7777 7.57021 40.6949 7.75385C47.262 8.10834 53.7681 9.20351 60.0894 11.0185C60.7874 11.4004 61.3505 11.9884 61.7019 12.7022C62.0532 13.416 62.1758 14.2208 62.0527 15.0068V48.7587C62.0706 49.8143 61.7807 50.8523 61.2183 51.7458C60.656 52.6394 59.8456 53.3498 58.8862 53.7904C52.9278 55.2646 46.8361 56.1348 40.7033 56.3876C35.8017 56.6161 30.8991 55.9586 26.231 54.4467C23.5788 54.2872 20.9638 53.744 18.4675 52.834C17.7231 52.5281 17.0621 52.0497 16.5389 51.4382C16.0156 50.8267 15.6452 50.0996 15.4581 49.3169C12.8161 38.0328 12.8161 26.2909 15.4581 15.0068C15.6603 14.2513 16.0383 13.5543 16.5614 12.9728C17.0844 12.3912 17.7376 11.9417 18.4675 11.6608C20.9642 10.7409 23.572 10.1571 26.2226 9.92469Z" fill="#F4A000"/>
<g filter="url(#filter0_d_63_13)">
<path d="M9.33856 12.3368C9.47543 11.9639 9.73166 11.6468 10.0675 11.4348C10.4033 11.2227 10.7998 11.1278 11.1952 11.1645C11.1952 11.1645 21.5306 10.9766 22.2879 11.1645C23.0452 11.3524 23.0648 11.7787 23.0648 11.7787C19.6043 24.9285 19.6401 38.7543 23.1685 51.886C23.1685 51.886 23.3733 52.6967 22.3047 53.008C19.1524 53.1687 15.9939 53.1687 12.8415 53.008C11.5368 53.0387 10.2573 52.6449 9.19545 51.886C5.22297 38.9958 5.27185 25.2014 9.33565 12.3397" fill="#FFCA65"/>
</g>
<g filter="url(#filter1_d_63_13)">
<path d="M9.33856 12.3368C9.47543 11.9639 9.73166 11.6468 10.0675 11.4348C10.4033 11.2227 10.7998 11.1278 11.1952 11.1645C11.1952 11.1645 21.5306 10.9766 22.2879 11.1645C23.0452 11.3524 23.0648 11.7787 23.0648 11.7787C19.6043 24.9285 19.6401 38.7543 23.1685 51.886C23.1685 51.886 23.3733 52.6967 22.3047 53.008C19.1524 53.1687 15.9939 53.1687 12.8415 53.008C11.5368 53.0387 10.2573 52.6449 9.19545 51.886C5.22297 38.9958 5.27185 25.2014 9.33565 12.3397" fill="#FFBB39"/>
</g>
<g filter="url(#filter2_d_63_13)">
<path d="M9.19539 12.2498C9.34166 11.8694 9.60894 11.5477 9.95614 11.3343C10.3033 11.1209 10.7112 11.0278 11.1166 11.0691C11.6053 11.0979 12.0784 11.2514 12.4909 11.5151C12.9033 11.7787 13.2413 12.1437 13.4725 12.5752C10.0115 26.4305 8.70448 37.8737 13.3771 51.3139C13.3958 51.5498 13.3646 51.787 13.2854 52.01C13.2061 52.2329 13.0808 52.4367 12.9175 52.6079C12.7542 52.7792 12.5565 52.914 12.3375 53.0037C12.1185 53.0934 11.8831 53.1359 11.6466 53.1285C11.1554 53.2265 10.6463 53.1761 10.1838 52.9838C9.72133 52.7916 9.32647 52.466 9.04954 52.0487C4.93425 39.0937 4.98527 25.1743 9.19539 12.2498Z" fill="white"/>
</g>
<path d="M46.8214 65.215C39.8139 65.8591 32.7551 65.6809 25.789 64.6837C25.3453 64.6161 24.9201 64.4589 24.5392 64.2216C24.1582 63.9844 23.8295 63.672 23.5733 63.3035C23.317 62.935 23.1384 62.5182 23.0485 62.0785C22.9587 61.6387 22.9593 61.1852 23.0505 60.7458C23.7045 57.4267 25.9041 57.9186 25.9041 57.9186C32.7466 58.6707 39.6516 58.6593 46.4916 57.8843C47.342 58.0149 48.1321 58.4031 48.7551 58.9966C49.378 59.5901 49.8041 60.3604 49.9758 61.2035C50.4177 64.0867 46.8214 65.2179 46.8214 65.2179" fill="#425473"/>
<defs>
<filter id="filter0_d_63_13" x="0.251526" y="8.08096" width="28.9327" height="54.0475" filterUnits="userSpaceOnUse" color-interpolation-filters="sRGB">
<feFlood flood-opacity="0" result="BackgroundImageFix"/>
<feColorMatrix in="SourceAlpha" type="matrix" values="0 0 0 0 0 0 0 0 0 0 0 0 0 0 0 0 0 0 127 0" result="hardAlpha"/>
<feOffset dy="3"/>
<feGaussianBlur stdDeviation="3"/>
<feColorMatrix type="matrix" values="0 0 0 0 0 0 0 0 0 0 0 0 0 0 0 0 0 0 0.161 0"/>
<feBlend mode="normal" in2="BackgroundImageFix" result="effect1_dropShadow_63_13"/>
<feBlend mode="normal" in="SourceGraphic" in2="effect1_dropShadow_63_13" result="shape"/>
</filter>
<filter id="filter1_d_63_13" x="0.251526" y="8.08096" width="28.9327" height="54.0475" filterUnits="userSpaceOnUse" color-interpolation-filters="sRGB">
<feFlood flood-opacity="0" result="BackgroundImageFix"/>
<feColorMatrix in="SourceAlpha" type="matrix" values="0 0 0 0 0 0 0 0 0 0 0 0 0 0 0 0 0 0 127 0" result="hardAlpha"/>
<feOffset dy="3"/>
<feGaussianBlur stdDeviation="3"/>
<feColorMatrix type="matrix" values="0 0 0 0 0 0 0 0 0 0 0 0 0 0 0 0 0 0 0.161 0"/>
<feBlend mode="normal" in2="BackgroundImageFix" result="effect1_dropShadow_63_13"/>
<feBlend mode="normal" in="SourceGraphic" in2="effect1_dropShadow_63_13" result="shape"/>
</filter>
<filter id="filter2_d_63_13" x="0" y="8.05954" width="19.4725" height="54.1177" filterUnits="userSpaceOnUse" color-interpolation-filters="sRGB">
<feFlood flood-opacity="0" result="BackgroundImageFix"/>
<feColorMatrix in="SourceAlpha" type="matrix" values="0 0 0 0 0 0 0 0 0 0 0 0 0 0 0 0 0 0 127 0" result="hardAlpha"/>
<feOffset dy="3"/>
<feGaussianBlur stdDeviation="3"/>
<feColorMatrix type="matrix" values="0 0 0 0 0 0 0 0 0 0 0 0 0 0 0 0 0 0 0.161 0"/>
<feBlend mode="normal" in2="BackgroundImageFix" result="effect1_dropShadow_63_13"/>
<feBlend mode="normal" in="SourceGraphic" in2="effect1_dropShadow_63_13" result="shape"/>
</filter>
</defs>
</svg>
