<svg width="63" height="66" viewBox="0 0 63 66" fill="none" xmlns="http://www.w3.org/2000/svg">
<path d="M36.9228 65.2682C29.9282 66.0313 22.8684 65.973 15.8874 65.0945C15.4427 65.0345 15.015 64.8846 14.6301 64.6539C14.2452 64.4231 13.9113 64.1164 13.6488 63.7524C13.3864 63.3884 13.2008 62.9747 13.1034 62.5366C13.0061 62.0986 12.9991 61.6452 13.0827 61.2043C13.6801 57.8751 15.8874 58.3294 15.8874 58.3294C22.7408 58.9651 29.6436 58.8363 36.4684 57.9453C37.3209 58.0614 38.1173 58.436 38.7502 59.0188C39.3831 59.6015 39.8221 60.3643 40.0081 61.2043C40.4989 64.0791 36.9228 65.2712 36.9228 65.2712" fill="#425473"/>
<path d="M35.8767 55.8753C31.2298 57.4935 26.3215 58.2297 21.4044 58.0461C14.8372 57.6916 8.33111 56.5964 2.0098 54.7814C1.31185 54.3995 0.74875 53.8116 0.397373 53.0978C0.0459967 52.384 -0.0765371 51.5791 0.046505 50.7931V17.0412C0.0286346 15.9856 0.318567 14.9476 0.88089 14.0541C1.44321 13.1606 2.25358 12.4501 3.21302 12.0096C9.17138 10.5353 15.2631 9.6652 21.396 9.41241C26.2975 9.18389 31.2001 9.84137 35.8683 11.3533C38.5204 11.5128 41.1354 12.056 43.6317 12.966C44.3761 13.2719 45.0371 13.7503 45.5604 14.3618C46.0836 14.9733 46.454 15.7003 46.6412 16.4831C49.2832 27.7672 49.2832 39.509 46.6412 50.7931C46.439 51.5487 46.0609 52.2457 45.5379 52.8272C45.0148 53.4087 44.3617 53.8583 43.6317 54.1391C41.1351 55.0591 38.5272 55.6429 35.8767 55.8753Z" fill="#DE2A2A"/>
<g filter="url(#filter0_d_63_46)">
<path d="M52.761 53.4633C52.6241 53.8361 52.3679 54.1533 52.0321 54.3653C51.6963 54.5773 51.2998 54.6723 50.9043 54.6356C50.9043 54.6356 40.5689 54.8235 39.8116 54.6356C39.0544 54.4477 39.0348 54.0214 39.0348 54.0214C42.4952 40.8716 42.4595 27.0458 38.9311 13.914C38.9311 13.914 38.7263 13.1034 39.7949 12.7921C42.9472 12.6314 46.1057 12.6314 49.258 12.7921C50.5628 12.7614 51.8422 13.1552 52.9041 13.914C56.8766 26.8042 56.8277 40.5987 52.7639 53.4604" fill="#FF6464"/>
</g>
<g filter="url(#filter1_d_63_46)">
<path d="M52.761 53.4633C52.6241 53.8361 52.3679 54.1533 52.0321 54.3653C51.6963 54.5773 51.2998 54.6723 50.9043 54.6356C50.9043 54.6356 40.5689 54.8235 39.8116 54.6356C39.0544 54.4477 39.0348 54.0214 39.0348 54.0214C42.4952 40.8716 42.4595 27.0458 38.9311 13.914C38.9311 13.914 38.7263 13.1034 39.7949 12.7921C42.9472 12.6314 46.1057 12.6314 49.258 12.7921C50.5628 12.7614 51.8422 13.1552 52.9041 13.914C56.8766 26.8042 56.8277 40.5987 52.7639 53.4604" fill="#FF4040"/>
</g>
<g filter="url(#filter2_d_63_46)">
<path d="M52.904 53.5502C52.7577 53.9306 52.4904 54.2523 52.1432 54.4657C51.796 54.6791 51.3882 54.7722 50.9827 54.7309C50.4941 54.7022 50.0209 54.5486 49.6085 54.285C49.196 54.0213 48.8581 53.6563 48.6269 53.2248C52.0879 39.3695 53.3949 27.9263 48.7222 14.4861C48.7036 14.2502 48.7348 14.013 48.814 13.7901C48.8932 13.5671 49.0186 13.3633 49.1819 13.1921C49.3452 13.0209 49.5429 12.886 49.7619 12.7963C49.9808 12.7066 50.2162 12.6641 50.4528 12.6715C50.9439 12.5735 51.4531 12.6239 51.9155 12.8162C52.378 13.0085 52.7729 13.334 53.0498 13.7514C57.1651 26.7064 57.1141 40.6257 52.904 53.5502Z" fill="white"/>
</g>
<path d="M15.278 0.584978C22.2855 -0.0591401 29.3444 0.1191 36.3104 1.11633C36.7541 1.18384 37.1793 1.34105 37.5603 1.57834C37.9412 1.81563 38.2699 2.12801 38.5262 2.49649C38.7824 2.86496 38.961 3.28179 39.0509 3.72152C39.1408 4.16125 39.1401 4.61474 39.049 5.05421C38.395 8.37325 36.1954 7.88143 36.1954 7.88143C29.3529 7.12925 22.4478 7.14067 15.6079 7.9157C14.7574 7.78504 13.9673 7.3969 13.3444 6.8034C12.7214 6.2099 12.2953 5.43961 12.1236 4.59648C11.6817 1.71331 15.2781 0.582068 15.2781 0.582068" fill="#425473"/>
<defs>
<filter id="filter0_d_63_46" x="32.9153" y="9.67157" width="28.9327" height="54.0475" filterUnits="userSpaceOnUse" color-interpolation-filters="sRGB">
<feFlood flood-opacity="0" result="BackgroundImageFix"/>
<feColorMatrix in="SourceAlpha" type="matrix" values="0 0 0 0 0 0 0 0 0 0 0 0 0 0 0 0 0 0 127 0" result="hardAlpha"/>
<feOffset dy="3"/>
<feGaussianBlur stdDeviation="3"/>
<feColorMatrix type="matrix" values="0 0 0 0 0 0 0 0 0 0 0 0 0 0 0 0 0 0 0.161 0"/>
<feBlend mode="normal" in2="BackgroundImageFix" result="effect1_dropShadow_63_46"/>
<feBlend mode="normal" in="SourceGraphic" in2="effect1_dropShadow_63_46" result="shape"/>
</filter>
<filter id="filter1_d_63_46" x="32.9153" y="9.67157" width="28.9327" height="54.0475" filterUnits="userSpaceOnUse" color-interpolation-filters="sRGB">
<feFlood flood-opacity="0" result="BackgroundImageFix"/>
<feColorMatrix in="SourceAlpha" type="matrix" values="0 0 0 0 0 0 0 0 0 0 0 0 0 0 0 0 0 0 127 0" result="hardAlpha"/>
<feOffset dy="3"/>
<feGaussianBlur stdDeviation="3"/>
<feColorMatrix type="matrix" values="0 0 0 0 0 0 0 0 0 0 0 0 0 0 0 0 0 0 0.161 0"/>
<feBlend mode="normal" in2="BackgroundImageFix" result="effect1_dropShadow_63_46"/>
<feBlend mode="normal" in="SourceGraphic" in2="effect1_dropShadow_63_46" result="shape"/>
</filter>
<filter id="filter2_d_63_46" x="42.6268" y="9.62274" width="19.4725" height="54.1177" filterUnits="userSpaceOnUse" color-interpolation-filters="sRGB">
<feFlood flood-opacity="0" result="BackgroundImageFix"/>
<feColorMatrix in="SourceAlpha" type="matrix" values="0 0 0 0 0 0 0 0 0 0 0 0 0 0 0 0 0 0 127 0" result="hardAlpha"/>
<feOffset dy="3"/>
<feGaussianBlur stdDeviation="3"/>
<feColorMatrix type="matrix" values="0 0 0 0 0 0 0 0 0 0 0 0 0 0 0 0 0 0 0.161 0"/>
<feBlend mode="normal" in2="BackgroundImageFix" result="effect1_dropShadow_63_46"/>
<feBlend mode="normal" in="SourceGraphic" in2="effect1_dropShadow_63_46" result="shape"/>
</filter>
</defs>
</svg>
