<svg width="63" height="66" viewBox="0 0 63 66" fill="none" xmlns="http://www.w3.org/2000/svg">
<path d="M36.9228 65.2681C29.9282 66.0311 22.8684 65.9729 15.8874 65.0943C15.4427 65.0344 15.015 64.8844 14.6301 64.6537C14.2452 64.423 13.9113 64.1163 13.6489 63.7522C13.3864 63.3882 13.2008 62.9746 13.1035 62.5365C13.0061 62.0984 12.9991 61.645 13.0827 61.2041C13.6801 57.8749 15.8874 58.3292 15.8874 58.3292C22.7408 58.9649 29.6436 58.8361 36.4684 57.9451C37.3209 58.0613 38.1173 58.4359 38.7502 59.0186C39.3831 59.6013 39.8221 60.3642 40.0081 61.2041C40.4989 64.079 36.9228 65.271 36.9228 65.271" fill="#425473"/>
<path d="M35.8768 55.8753C31.2299 57.4936 26.3217 58.2298 21.4045 58.0462C14.8373 57.6917 8.33125 56.5965 2.00994 54.7815C1.31199 54.3996 0.748887 53.8116 0.397511 53.0979C0.0461342 52.3841 -0.0763997 51.5792 0.0466423 50.7932V17.0413C0.0287719 15.9857 0.318709 14.9477 0.881031 14.0542C1.44335 13.1606 2.25372 12.4502 3.21316 12.0096C9.17152 10.5354 15.2633 9.66526 21.3961 9.41247C26.2976 9.18395 31.2002 9.84143 35.8684 11.3533C38.5205 11.5128 41.1356 12.0561 43.6318 12.966C44.3762 13.2719 45.0373 13.7503 45.5605 14.3618C46.0837 14.9733 46.4542 15.7004 46.6413 16.4831C49.2833 27.7672 49.2833 39.5091 46.6413 50.7932C46.4391 51.5487 46.061 52.2457 45.538 52.8273C45.015 53.4088 44.3618 53.8583 43.6318 54.1392C41.1352 55.0591 38.5273 55.643 35.8768 55.8753Z" fill="#F4A000"/>
<g filter="url(#filter0_d_63_68)">
<path d="M52.7608 53.4633C52.6239 53.8361 52.3677 54.1532 52.0319 54.3652C51.6961 54.5773 51.2996 54.6722 50.9041 54.6355C50.9041 54.6355 40.5687 54.8235 39.8115 54.6355C39.0542 54.4476 39.0346 54.0213 39.0346 54.0213C42.495 40.8715 42.4593 27.0457 38.9309 13.914C38.9309 13.914 38.7261 13.1034 39.7947 12.792C42.947 12.6313 46.1055 12.6313 49.2578 12.792C50.5626 12.7614 51.8421 13.1551 52.9039 13.914C56.8764 26.8042 56.8275 40.5987 52.7637 53.4603" fill="#FFCA65"/>
</g>
<g filter="url(#filter1_d_63_68)">
<path d="M52.7608 53.4633C52.6239 53.8361 52.3677 54.1532 52.0319 54.3652C51.6961 54.5773 51.2996 54.6722 50.9041 54.6355C50.9041 54.6355 40.5687 54.8235 39.8115 54.6355C39.0542 54.4476 39.0346 54.0213 39.0346 54.0213C42.495 40.8715 42.4593 27.0457 38.9309 13.914C38.9309 13.914 38.7261 13.1034 39.7947 12.792C42.947 12.6313 46.1055 12.6313 49.2578 12.792C50.5626 12.7614 51.8421 13.1551 52.9039 13.914C56.8764 26.8042 56.8275 40.5987 52.7637 53.4603" fill="#FFBB39"/>
</g>
<g filter="url(#filter2_d_63_68)">
<path d="M52.904 53.5502C52.7577 53.9306 52.4904 54.2523 52.1432 54.4657C51.796 54.6791 51.3882 54.7722 50.9828 54.7309C50.4941 54.7022 50.0209 54.5486 49.6085 54.285C49.196 54.0213 48.8581 53.6563 48.6269 53.2248C52.0879 39.3695 53.3949 27.9263 48.7222 14.4861C48.7036 14.2502 48.7348 14.013 48.814 13.7901C48.8932 13.5671 49.0186 13.3633 49.1819 13.1921C49.3452 13.0209 49.5429 12.886 49.7619 12.7963C49.9808 12.7066 50.2162 12.6641 50.4528 12.6715C50.944 12.5735 51.4531 12.6239 51.9155 12.8162C52.378 13.0085 52.7729 13.334 53.0498 13.7514C57.1651 26.7064 57.1141 40.6257 52.904 53.5502Z" fill="white"/>
</g>
<path d="M15.278 0.585008C22.2855 -0.0591103 29.3443 0.119129 36.3103 1.11636C36.754 1.18387 37.1792 1.34108 37.5602 1.57837C37.9412 1.81566 38.2698 2.12804 38.5261 2.49652C38.7824 2.86499 38.961 3.28182 39.0508 3.72155C39.1407 4.16128 39.14 4.61477 39.0489 5.05424C38.3949 8.37328 36.1953 7.88146 36.1953 7.88146C29.3528 7.12928 22.4478 7.1407 15.6078 7.91573C14.7573 7.78508 13.9673 7.39693 13.3443 6.80343C12.7213 6.20993 12.2953 5.43964 12.1236 4.59651C11.6816 1.71334 15.278 0.582098 15.278 0.582098" fill="#425473"/>
<defs>
<filter id="filter0_d_63_68" x="32.9152" y="9.67151" width="28.9327" height="54.0475" filterUnits="userSpaceOnUse" color-interpolation-filters="sRGB">
<feFlood flood-opacity="0" result="BackgroundImageFix"/>
<feColorMatrix in="SourceAlpha" type="matrix" values="0 0 0 0 0 0 0 0 0 0 0 0 0 0 0 0 0 0 127 0" result="hardAlpha"/>
<feOffset dy="3"/>
<feGaussianBlur stdDeviation="3"/>
<feColorMatrix type="matrix" values="0 0 0 0 0 0 0 0 0 0 0 0 0 0 0 0 0 0 0.161 0"/>
<feBlend mode="normal" in2="BackgroundImageFix" result="effect1_dropShadow_63_68"/>
<feBlend mode="normal" in="SourceGraphic" in2="effect1_dropShadow_63_68" result="shape"/>
</filter>
<filter id="filter1_d_63_68" x="32.9152" y="9.67151" width="28.9327" height="54.0475" filterUnits="userSpaceOnUse" color-interpolation-filters="sRGB">
<feFlood flood-opacity="0" result="BackgroundImageFix"/>
<feColorMatrix in="SourceAlpha" type="matrix" values="0 0 0 0 0 0 0 0 0 0 0 0 0 0 0 0 0 0 127 0" result="hardAlpha"/>
<feOffset dy="3"/>
<feGaussianBlur stdDeviation="3"/>
<feColorMatrix type="matrix" values="0 0 0 0 0 0 0 0 0 0 0 0 0 0 0 0 0 0 0.161 0"/>
<feBlend mode="normal" in2="BackgroundImageFix" result="effect1_dropShadow_63_68"/>
<feBlend mode="normal" in="SourceGraphic" in2="effect1_dropShadow_63_68" result="shape"/>
</filter>
<filter id="filter2_d_63_68" x="42.6269" y="9.62274" width="19.4725" height="54.1177" filterUnits="userSpaceOnUse" color-interpolation-filters="sRGB">
<feFlood flood-opacity="0" result="BackgroundImageFix"/>
<feColorMatrix in="SourceAlpha" type="matrix" values="0 0 0 0 0 0 0 0 0 0 0 0 0 0 0 0 0 0 127 0" result="hardAlpha"/>
<feOffset dy="3"/>
<feGaussianBlur stdDeviation="3"/>
<feColorMatrix type="matrix" values="0 0 0 0 0 0 0 0 0 0 0 0 0 0 0 0 0 0 0.161 0"/>
<feBlend mode="normal" in2="BackgroundImageFix" result="effect1_dropShadow_63_68"/>
<feBlend mode="normal" in="SourceGraphic" in2="effect1_dropShadow_63_68" result="shape"/>
</filter>
</defs>
</svg>
