<svg width="63" height="66" viewBox="0 0 63 66" fill="none" xmlns="http://www.w3.org/2000/svg">
<path d="M37.7731 65.418C30.7786 66.181 23.7188 66.1228 16.7378 65.2442C16.293 65.1843 15.8653 65.0343 15.4804 64.8036C15.0955 64.5728 14.7616 64.2661 14.4992 63.9021C14.2367 63.5381 14.0511 63.1244 13.9538 62.6863C13.8565 62.2483 13.8494 61.7949 13.9331 61.354C14.5305 58.0248 16.7378 58.4791 16.7378 58.4791C23.5911 59.1148 30.4939 58.986 37.3188 58.095C38.1712 58.2111 38.9676 58.5857 39.6005 59.1685C40.2334 59.7512 40.6724 60.514 40.8584 61.354C41.3492 64.2288 37.7731 65.4209 37.7731 65.4209" fill="#425473"/>
<path d="M36.727 56.0251C32.0801 57.6433 27.1719 58.3795 22.2547 58.1959C15.6876 57.8414 9.18145 56.7462 2.86015 54.9312C2.16219 54.5493 1.59909 53.9614 1.24771 53.2476C0.896336 52.5338 0.773804 51.7289 0.896847 50.9429V17.191C0.878975 16.1354 1.16891 15.0974 1.73123 14.2039C2.29356 13.3104 3.10392 12.5999 4.06336 12.1594C10.0217 10.6851 16.1135 9.81499 22.2463 9.5622C27.1479 9.33369 32.0505 9.99116 36.7186 11.5031C39.3708 11.6626 41.9858 12.2058 44.482 13.1158C45.2264 13.4217 45.8875 13.9001 46.4107 14.5116C46.9339 15.1231 47.3044 15.8501 47.4915 16.6329C50.1335 27.917 50.1335 39.6588 47.4915 50.9429C47.2893 51.6985 46.9112 52.3955 46.3882 52.977C45.8652 53.5585 45.212 54.0081 44.482 54.2889C41.9854 55.2089 39.3776 55.7927 36.727 56.0251Z" fill="#00969E"/>
<g filter="url(#filter0_d_40_2)">
<path d="M53.6113 53.613C53.4745 53.9858 53.2182 54.3029 52.8824 54.5149C52.5466 54.727 52.1501 54.8219 51.7546 54.7852C51.7546 54.7852 41.4192 54.9732 40.662 54.7852C39.9047 54.5973 39.8851 54.171 39.8851 54.171C43.3456 41.0212 43.3098 27.1954 39.7814 14.0637C39.7814 14.0637 39.5766 13.2531 40.6452 12.9417C43.7975 12.781 46.956 12.781 50.1084 12.9417C51.4131 12.9111 52.6926 13.3048 53.7544 14.0637C57.7269 26.9539 57.678 40.7484 53.6142 53.6101" fill="#4AA6AB"/>
</g>
<g filter="url(#filter1_d_40_2)">
<path d="M53.6113 53.613C53.4745 53.9858 53.2182 54.3029 52.8824 54.5149C52.5466 54.727 52.1501 54.8219 51.7546 54.7852C51.7546 54.7852 41.4192 54.9732 40.662 54.7852C39.9047 54.5973 39.8851 54.171 39.8851 54.171C43.3456 41.0212 43.3098 27.1954 39.7814 14.0637C39.7814 14.0637 39.5766 13.2531 40.6452 12.9417C43.7975 12.781 46.956 12.781 50.1084 12.9417C51.4131 12.9111 52.6926 13.3048 53.7544 14.0637C57.7269 26.9539 57.678 40.7484 53.6142 53.6101" fill="#4AA6AB"/>
</g>
<g filter="url(#filter2_d_40_2)">
<path d="M53.7543 53.6999C53.608 54.0803 53.3408 54.402 52.9936 54.6154C52.6464 54.8288 52.2385 54.9219 51.8331 54.8806C51.3444 54.8518 50.8713 54.6983 50.4588 54.4346C50.0464 54.1709 49.7084 53.806 49.4772 53.3745C52.9382 39.5192 54.2452 28.0759 49.5726 14.6358C49.5539 14.3999 49.5851 14.1627 49.6643 13.9397C49.7436 13.7167 49.8689 13.513 50.0322 13.3418C50.1955 13.1705 50.3932 13.0357 50.6122 12.946C50.8312 12.8563 51.0666 12.8138 51.3031 12.8212C51.7943 12.7232 52.3034 12.7736 52.7659 12.9658C53.2284 13.1581 53.6232 13.4837 53.9002 13.901C58.0155 26.856 57.9644 40.7754 53.7543 53.6999Z" fill="white"/>
</g>
<path d="M16.1284 0.734682C23.1359 0.0905637 30.1947 0.268804 37.1607 1.26604C37.6044 1.33354 38.0296 1.49076 38.4106 1.72804C38.7916 1.96533 39.1203 2.27772 39.3765 2.64619C39.6328 3.01467 39.8114 3.43149 39.9012 3.87123C39.9911 4.31096 39.9904 4.76445 39.8993 5.20392C39.2453 8.52296 37.0457 8.03114 37.0457 8.03114C30.2032 7.27895 23.2982 7.29037 16.4582 8.0654C15.6077 7.93475 14.8177 7.5466 14.1947 6.9531C13.5717 6.3596 13.1457 5.58932 12.974 4.74619C12.532 1.86301 16.1284 0.731772 16.1284 0.731772" fill="#425473"/>
<defs>
<filter id="filter0_d_40_2" x="33.7656" y="9.82121" width="28.9327" height="54.0475" filterUnits="userSpaceOnUse" color-interpolation-filters="sRGB">
<feFlood flood-opacity="0" result="BackgroundImageFix"/>
<feColorMatrix in="SourceAlpha" type="matrix" values="0 0 0 0 0 0 0 0 0 0 0 0 0 0 0 0 0 0 127 0" result="hardAlpha"/>
<feOffset dy="3"/>
<feGaussianBlur stdDeviation="3"/>
<feColorMatrix type="matrix" values="0 0 0 0 0 0 0 0 0 0 0 0 0 0 0 0 0 0 0.161 0"/>
<feBlend mode="normal" in2="BackgroundImageFix" result="effect1_dropShadow_40_2"/>
<feBlend mode="normal" in="SourceGraphic" in2="effect1_dropShadow_40_2" result="shape"/>
</filter>
<filter id="filter1_d_40_2" x="33.7656" y="9.82121" width="28.9327" height="54.0475" filterUnits="userSpaceOnUse" color-interpolation-filters="sRGB">
<feFlood flood-opacity="0" result="BackgroundImageFix"/>
<feColorMatrix in="SourceAlpha" type="matrix" values="0 0 0 0 0 0 0 0 0 0 0 0 0 0 0 0 0 0 127 0" result="hardAlpha"/>
<feOffset dy="3"/>
<feGaussianBlur stdDeviation="3"/>
<feColorMatrix type="matrix" values="0 0 0 0 0 0 0 0 0 0 0 0 0 0 0 0 0 0 0.161 0"/>
<feBlend mode="normal" in2="BackgroundImageFix" result="effect1_dropShadow_40_2"/>
<feBlend mode="normal" in="SourceGraphic" in2="effect1_dropShadow_40_2" result="shape"/>
</filter>
<filter id="filter2_d_40_2" x="43.4772" y="9.77242" width="19.4725" height="54.1177" filterUnits="userSpaceOnUse" color-interpolation-filters="sRGB">
<feFlood flood-opacity="0" result="BackgroundImageFix"/>
<feColorMatrix in="SourceAlpha" type="matrix" values="0 0 0 0 0 0 0 0 0 0 0 0 0 0 0 0 0 0 127 0" result="hardAlpha"/>
<feOffset dy="3"/>
<feGaussianBlur stdDeviation="3"/>
<feColorMatrix type="matrix" values="0 0 0 0 0 0 0 0 0 0 0 0 0 0 0 0 0 0 0.161 0"/>
<feBlend mode="normal" in2="BackgroundImageFix" result="effect1_dropShadow_40_2"/>
<feBlend mode="normal" in="SourceGraphic" in2="effect1_dropShadow_40_2" result="shape"/>
</filter>
</defs>
</svg>
