<svg width="63" height="66" viewBox="0 0 63 66" fill="none" xmlns="http://www.w3.org/2000/svg">
<path d="M36.9227 65.2683C29.9282 66.0313 22.8684 65.9731 15.8874 65.0945C15.4426 65.0346 15.0149 64.8846 14.63 64.6539C14.2451 64.4231 13.9112 64.1164 13.6488 63.7524C13.3863 63.3884 13.2007 62.9747 13.1034 62.5367C13.0061 62.0986 12.999 61.6452 13.0827 61.2043C13.6801 57.8751 15.8874 58.3294 15.8874 58.3294C22.7407 58.9651 29.6435 58.8363 36.4684 57.9453C37.3208 58.0614 38.1172 58.436 38.7501 59.0188C39.383 59.6015 39.822 60.3644 40.008 61.2043C40.4988 64.0792 36.9227 65.2712 36.9227 65.2712" fill="#425473"/>
<path d="M35.8767 55.8754C31.2298 57.4936 26.3215 58.2299 21.4044 58.0462C14.8372 57.6917 8.33111 56.5966 2.0098 54.7815C1.31185 54.3997 0.748748 53.8117 0.397372 53.0979C0.045995 52.3841 -0.0765375 51.5793 0.0465045 50.7932V17.0413C0.0286342 15.9857 0.318569 14.9478 0.880892 14.0542C1.44321 13.1607 2.25358 12.4503 3.21302 12.0097C9.17138 10.5354 15.2631 9.66532 21.396 9.41253C26.2975 9.18401 31.2001 9.84149 35.8683 11.3534C38.5204 11.5129 41.1354 12.0561 43.6317 12.9661C44.3761 13.272 45.0371 13.7504 45.5604 14.3619C46.0836 14.9734 46.454 15.7005 46.6412 16.4832C49.2832 27.7673 49.2832 39.5091 46.6412 50.7932C46.439 51.5488 46.0609 52.2458 45.5379 52.8273C45.0148 53.4088 44.3617 53.8584 43.6317 54.1393C41.1351 55.0592 38.5272 55.643 35.8767 55.8754Z" fill="#25B14A"/>
<g filter="url(#filter0_d_63_57)">
<path d="M52.7609 53.4633C52.6241 53.8361 52.3678 54.1532 52.032 54.3653C51.6962 54.5773 51.2997 54.6723 50.9042 54.6356C50.9042 54.6356 40.5688 54.8235 39.8116 54.6356C39.0543 54.4477 39.0347 54.0214 39.0347 54.0214C42.4952 40.8715 42.4594 27.0458 38.931 13.914C38.931 13.914 38.7262 13.1034 39.7948 12.7921C42.9471 12.6314 46.1056 12.6314 49.2579 12.7921C50.5627 12.7614 51.8422 13.1552 52.904 13.914C56.8765 26.8042 56.8276 40.5987 52.7638 53.4604" fill="#63FF8C"/>
</g>
<g filter="url(#filter1_d_63_57)">
<path d="M52.7609 53.4633C52.6241 53.8361 52.3678 54.1532 52.032 54.3653C51.6962 54.5773 51.2997 54.6723 50.9042 54.6356C50.9042 54.6356 40.5688 54.8235 39.8116 54.6356C39.0543 54.4477 39.0347 54.0214 39.0347 54.0214C42.4952 40.8715 42.4594 27.0458 38.931 13.914C38.931 13.914 38.7262 13.1034 39.7948 12.7921C42.9471 12.6314 46.1056 12.6314 49.2579 12.7921C50.5627 12.7614 51.8422 13.1552 52.904 13.914C56.8765 26.8042 56.8276 40.5987 52.7638 53.4604" fill="#63FF8C"/>
</g>
<g filter="url(#filter2_d_63_57)">
<path d="M52.904 53.5502C52.7577 53.9306 52.4904 54.2523 52.1432 54.4657C51.796 54.6791 51.3882 54.7722 50.9827 54.7309C50.4941 54.7022 50.0209 54.5486 49.6085 54.285C49.196 54.0213 48.8581 53.6563 48.6269 53.2248C52.0879 39.3695 53.3949 27.9263 48.7222 14.4861C48.7036 14.2502 48.7348 14.013 48.814 13.7901C48.8932 13.5671 49.0186 13.3633 49.1819 13.1921C49.3452 13.0209 49.5429 12.886 49.7619 12.7963C49.9808 12.7066 50.2162 12.6641 50.4528 12.6715C50.9439 12.5735 51.4531 12.6239 51.9155 12.8162C52.378 13.0085 52.7729 13.334 53.0498 13.7514C57.1651 26.7064 57.1141 40.6257 52.904 53.5502Z" fill="white"/>
</g>
<path d="M15.278 0.584978C22.2855 -0.0591401 29.3444 0.1191 36.3104 1.11633C36.7541 1.18384 37.1793 1.34105 37.5603 1.57834C37.9412 1.81563 38.2699 2.12801 38.5262 2.49649C38.7824 2.86496 38.961 3.28179 39.0509 3.72152C39.1408 4.16125 39.1401 4.61474 39.049 5.05421C38.395 8.37325 36.1954 7.88143 36.1954 7.88143C29.3529 7.12925 22.4478 7.14067 15.6079 7.9157C14.7574 7.78504 13.9673 7.3969 13.3444 6.8034C12.7214 6.2099 12.2953 5.43961 12.1236 4.59648C11.6817 1.71331 15.2781 0.582068 15.2781 0.582068" fill="#425473"/>
<defs>
<filter id="filter0_d_63_57" x="32.9153" y="9.67154" width="28.9327" height="54.0475" filterUnits="userSpaceOnUse" color-interpolation-filters="sRGB">
<feFlood flood-opacity="0" result="BackgroundImageFix"/>
<feColorMatrix in="SourceAlpha" type="matrix" values="0 0 0 0 0 0 0 0 0 0 0 0 0 0 0 0 0 0 127 0" result="hardAlpha"/>
<feOffset dy="3"/>
<feGaussianBlur stdDeviation="3"/>
<feColorMatrix type="matrix" values="0 0 0 0 0 0 0 0 0 0 0 0 0 0 0 0 0 0 0.161 0"/>
<feBlend mode="normal" in2="BackgroundImageFix" result="effect1_dropShadow_63_57"/>
<feBlend mode="normal" in="SourceGraphic" in2="effect1_dropShadow_63_57" result="shape"/>
</filter>
<filter id="filter1_d_63_57" x="32.9153" y="9.67154" width="28.9327" height="54.0475" filterUnits="userSpaceOnUse" color-interpolation-filters="sRGB">
<feFlood flood-opacity="0" result="BackgroundImageFix"/>
<feColorMatrix in="SourceAlpha" type="matrix" values="0 0 0 0 0 0 0 0 0 0 0 0 0 0 0 0 0 0 127 0" result="hardAlpha"/>
<feOffset dy="3"/>
<feGaussianBlur stdDeviation="3"/>
<feColorMatrix type="matrix" values="0 0 0 0 0 0 0 0 0 0 0 0 0 0 0 0 0 0 0.161 0"/>
<feBlend mode="normal" in2="BackgroundImageFix" result="effect1_dropShadow_63_57"/>
<feBlend mode="normal" in="SourceGraphic" in2="effect1_dropShadow_63_57" result="shape"/>
</filter>
<filter id="filter2_d_63_57" x="42.6269" y="9.62274" width="19.4725" height="54.1177" filterUnits="userSpaceOnUse" color-interpolation-filters="sRGB">
<feFlood flood-opacity="0" result="BackgroundImageFix"/>
<feColorMatrix in="SourceAlpha" type="matrix" values="0 0 0 0 0 0 0 0 0 0 0 0 0 0 0 0 0 0 127 0" result="hardAlpha"/>
<feOffset dy="3"/>
<feGaussianBlur stdDeviation="3"/>
<feColorMatrix type="matrix" values="0 0 0 0 0 0 0 0 0 0 0 0 0 0 0 0 0 0 0.161 0"/>
<feBlend mode="normal" in2="BackgroundImageFix" result="effect1_dropShadow_63_57"/>
<feBlend mode="normal" in="SourceGraphic" in2="effect1_dropShadow_63_57" result="shape"/>
</filter>
</defs>
</svg>
