<svg width="66" height="60" viewBox="0 0 66 60" fill="none" xmlns="http://www.w3.org/2000/svg">
<path d="M65.2681 22.1766C66.0311 29.1711 65.9729 36.2309 65.0943 43.2119C65.0344 43.6567 64.8845 44.0844 64.6537 44.4693C64.423 44.8542 64.1163 45.1881 63.7522 45.4505C63.3882 45.713 62.9746 45.8986 62.5365 45.9959C62.0984 46.0932 61.645 46.1003 61.2041 46.0166C57.875 45.4192 58.3292 43.2119 58.3292 43.2119C58.9649 36.3586 58.8362 29.4558 57.9451 22.6309C58.0613 21.7785 58.4359 20.9821 59.0186 20.3492C59.6014 19.7163 60.3642 19.2773 61.2041 19.0913C64.079 18.6005 65.271 22.1766 65.271 22.1766" fill="#425473"/>
<path d="M55.8753 23.2225C57.4936 27.8694 58.2298 32.7777 58.0462 37.6948C57.6917 44.262 56.5965 50.7681 54.7815 57.0894C54.3996 57.7874 53.8116 58.3505 53.0978 58.7018C52.384 59.0532 51.5792 59.1757 50.7932 59.0527H17.0413C15.9857 59.0706 14.9477 58.7806 14.0542 58.2183C13.1606 57.656 12.4502 56.8456 12.0096 55.8862C10.5354 49.9278 9.66525 43.8361 9.41246 37.7033C9.18394 32.8017 9.84142 27.8991 11.3533 23.231C11.5128 20.5788 12.0561 17.9638 12.966 15.4675C13.2719 14.7231 13.7503 14.0621 14.3618 13.5389C14.9733 13.0156 15.7004 12.6452 16.4831 12.4581C27.7672 9.81604 39.5091 9.81604 50.7932 12.4581C51.5487 12.6603 52.2457 13.0383 52.8273 13.5614C53.4088 14.0844 53.8583 14.7376 54.1392 15.4675C55.0591 17.9641 55.643 20.572 55.8753 23.2225Z" fill="#F4A000"/>
<g filter="url(#filter0_d_1_4)">
<path d="M53.4632 6.33854C53.8361 6.47541 54.1532 6.73164 54.3652 7.06745C54.5773 7.40326 54.6722 7.79978 54.6355 8.19523C54.6355 8.19523 54.8234 18.5306 54.6355 19.2879C54.4476 20.0452 54.0213 20.0647 54.0213 20.0647C40.8715 16.6043 27.0457 16.64 13.914 20.1685C13.914 20.1685 13.1033 20.3733 12.792 19.3047C12.6313 16.1524 12.6313 12.9938 12.792 9.84152C12.7614 8.53674 13.1551 7.25729 13.914 6.19543C26.8042 2.22295 40.5986 2.27183 53.4603 6.33563" fill="#FFCA65"/>
</g>
<g filter="url(#filter1_d_1_4)">
<path d="M53.4632 6.33854C53.8361 6.47541 54.1532 6.73164 54.3652 7.06745C54.5773 7.40326 54.6722 7.79978 54.6355 8.19523C54.6355 8.19523 54.8234 18.5306 54.6355 19.2879C54.4476 20.0452 54.0213 20.0647 54.0213 20.0647C40.8715 16.6043 27.0457 16.64 13.914 20.1685C13.914 20.1685 13.1033 20.3733 12.792 19.3047C12.6313 16.1524 12.6313 12.9938 12.792 9.84152C12.7614 8.53674 13.1551 7.25729 13.914 6.19543C26.8042 2.22295 40.5986 2.27183 53.4603 6.33563" fill="#FFBB39"/>
</g>
<g filter="url(#filter2_d_1_4)">
<path d="M53.5502 6.19539C53.9306 6.34166 54.2523 6.60894 54.4657 6.95614C54.6791 7.30335 54.7722 7.71118 54.7309 8.11661C54.7021 8.6053 54.5486 9.07844 54.2849 9.49089C54.0213 9.90335 53.6563 10.2413 53.2248 10.4725C39.3695 7.01146 27.9263 5.70448 14.4861 10.3771C14.2502 10.3958 14.013 10.3646 13.79 10.2854C13.5671 10.2061 13.3633 10.0808 13.1921 9.91749C13.0208 9.75418 12.886 9.55648 12.7963 9.33751C12.7066 9.11855 12.6641 8.88312 12.6715 8.6466C12.5735 8.15541 12.6239 7.64631 12.8162 7.18382C13.0084 6.72133 13.334 6.32647 13.7513 6.04954C26.7063 1.93425 40.6257 1.98527 53.5502 6.19539Z" fill="white"/>
</g>
<path d="M0.585 43.8214C-0.0591179 36.8139 0.119122 29.7551 1.11635 22.789C1.18386 22.3453 1.34108 21.9201 1.57836 21.5392C1.81565 21.1582 2.12803 20.8295 2.49651 20.5732C2.86498 20.317 3.28181 20.1384 3.72154 20.0485C4.16128 19.9586 4.61476 19.9593 5.05424 20.0505C8.37327 20.7045 7.88145 22.904 7.88145 22.904C7.12927 29.7466 7.14069 36.6516 7.91572 43.4916C7.78507 44.342 7.39692 45.1321 6.80342 45.755C6.20992 46.378 5.43964 46.8041 4.59651 46.9758C1.71333 47.4177 0.58209 43.8213 0.58209 43.8213" fill="#425473"/>
<defs>
<filter id="filter0_d_1_4" x="6.6715" y="0.251511" width="54.0475" height="28.9327" filterUnits="userSpaceOnUse" color-interpolation-filters="sRGB">
<feFlood flood-opacity="0" result="BackgroundImageFix"/>
<feColorMatrix in="SourceAlpha" type="matrix" values="0 0 0 0 0 0 0 0 0 0 0 0 0 0 0 0 0 0 127 0" result="hardAlpha"/>
<feOffset dy="3"/>
<feGaussianBlur stdDeviation="3"/>
<feColorMatrix type="matrix" values="0 0 0 0 0 0 0 0 0 0 0 0 0 0 0 0 0 0 0.161 0"/>
<feBlend mode="normal" in2="BackgroundImageFix" result="effect1_dropShadow_1_4"/>
<feBlend mode="normal" in="SourceGraphic" in2="effect1_dropShadow_1_4" result="shape"/>
</filter>
<filter id="filter1_d_1_4" x="6.6715" y="0.251511" width="54.0475" height="28.9327" filterUnits="userSpaceOnUse" color-interpolation-filters="sRGB">
<feFlood flood-opacity="0" result="BackgroundImageFix"/>
<feColorMatrix in="SourceAlpha" type="matrix" values="0 0 0 0 0 0 0 0 0 0 0 0 0 0 0 0 0 0 127 0" result="hardAlpha"/>
<feOffset dy="3"/>
<feGaussianBlur stdDeviation="3"/>
<feColorMatrix type="matrix" values="0 0 0 0 0 0 0 0 0 0 0 0 0 0 0 0 0 0 0.161 0"/>
<feBlend mode="normal" in2="BackgroundImageFix" result="effect1_dropShadow_1_4"/>
<feBlend mode="normal" in="SourceGraphic" in2="effect1_dropShadow_1_4" result="shape"/>
</filter>
<filter id="filter2_d_1_4" x="6.62273" y="0" width="54.1177" height="19.4725" filterUnits="userSpaceOnUse" color-interpolation-filters="sRGB">
<feFlood flood-opacity="0" result="BackgroundImageFix"/>
<feColorMatrix in="SourceAlpha" type="matrix" values="0 0 0 0 0 0 0 0 0 0 0 0 0 0 0 0 0 0 127 0" result="hardAlpha"/>
<feOffset dy="3"/>
<feGaussianBlur stdDeviation="3"/>
<feColorMatrix type="matrix" values="0 0 0 0 0 0 0 0 0 0 0 0 0 0 0 0 0 0 0.161 0"/>
<feBlend mode="normal" in2="BackgroundImageFix" result="effect1_dropShadow_1_4"/>
<feBlend mode="normal" in="SourceGraphic" in2="effect1_dropShadow_1_4" result="shape"/>
</filter>
</defs>
</svg>
