<svg width="66" height="66" viewBox="0 0 66 66" fill="none" xmlns="http://www.w3.org/2000/svg">
<g opacity="0.8">
<path d="M0.531889 37.8234C-0.231136 30.8289 -0.172913 23.7691 0.705643 16.7881C0.765589 16.3433 0.915532 15.9156 1.14628 15.5307C1.37702 15.1458 1.68373 14.8119 2.04774 14.5495C2.41175 14.287 2.82542 14.1014 3.2635 14.0041C3.70158 13.9068 4.15495 13.8997 4.59584 13.9834C7.92503 14.5808 7.47074 16.7881 7.47074 16.7881C6.83506 23.6414 6.96383 30.5442 7.85488 37.3691C7.73872 38.2215 7.36411 39.0179 6.78137 39.6508C6.19863 40.2837 5.43581 40.7227 4.59584 40.9087C1.72102 41.3995 0.528979 37.8234 0.528979 37.8234" fill="#425473"/>
<path d="M9.92467 36.7775C8.30642 32.1306 7.57019 27.2223 7.75383 22.3052C8.10832 15.738 9.20349 9.23191 11.0185 2.91061C11.4004 2.21265 11.9883 1.64955 12.7021 1.29818C13.4159 0.946799 14.2208 0.824266 15.0068 0.947308L48.7587 0.947308C49.8143 0.929438 50.8523 1.21937 51.7458 1.7817C52.6394 2.34402 53.3498 3.15439 53.7904 4.11382C55.2646 10.0722 56.1347 16.1639 56.3875 22.2968C56.616 27.1983 55.9586 32.1009 54.4467 36.7691C54.2872 39.4212 53.7439 42.0362 52.834 44.5325C52.5281 45.2769 52.0496 45.9379 51.4382 46.4612C50.8267 46.9844 50.0996 47.3548 49.3168 47.5419C38.0328 50.184 26.2909 50.184 15.0068 47.5419C14.2513 47.3397 13.5543 46.9617 12.9727 46.4387C12.3912 45.9156 11.9417 45.2625 11.6608 44.5325C10.7409 42.0359 10.157 39.428 9.92467 36.7775Z" fill="#F4A000"/>
<g filter="url(#filter0_d_3_14375)">
<path d="M12.3367 53.6615C11.9639 53.5246 11.6468 53.2684 11.4348 52.9326C11.2227 52.5968 11.1278 52.2002 11.1645 51.8048C11.1645 51.8048 10.9765 41.4694 11.1645 40.7121C11.3524 39.9548 11.7787 39.9353 11.7787 39.9353C24.9285 43.3957 38.7543 43.36 51.886 39.8315C51.886 39.8315 52.6967 39.6267 53.008 40.6953C53.1687 43.8477 53.1687 47.0062 53.008 50.1585C53.0386 51.4633 52.6449 52.7427 51.886 53.8046C38.9958 57.7771 25.2014 57.7282 12.3397 53.6644" fill="#FFCA65"/>
</g>
<g filter="url(#filter1_d_3_14375)">
<path d="M12.3367 53.6615C11.9639 53.5246 11.6468 53.2684 11.4348 52.9326C11.2227 52.5968 11.1278 52.2002 11.1645 51.8048C11.1645 51.8048 10.9765 41.4694 11.1645 40.7121C11.3524 39.9548 11.7787 39.9353 11.7787 39.9353C24.9285 43.3957 38.7543 43.36 51.886 39.8315C51.886 39.8315 52.6967 39.6267 53.008 40.6953C53.1687 43.8477 53.1687 47.0062 53.008 50.1585C53.0386 51.4633 52.6449 52.7427 51.886 53.8046C38.9958 57.7771 25.2014 57.7282 12.3397 53.6644" fill="#FFBB39"/>
</g>
<g filter="url(#filter2_d_3_14375)">
<path d="M12.2498 53.8046C11.8694 53.6583 11.5477 53.3911 11.3343 53.0439C11.1209 52.6967 11.0278 52.2888 11.0691 51.8834C11.0978 51.3947 11.2514 50.9216 11.515 50.5091C11.7787 50.0967 12.1437 49.7587 12.5752 49.5275C26.4305 52.9885 37.8737 54.2955 51.3139 49.6229C51.5498 49.6042 51.787 49.6354 52.01 49.7146C52.2329 49.7939 52.4367 49.9192 52.6079 50.0825C52.7792 50.2458 52.914 50.4435 53.0037 50.6625C53.0934 50.8815 53.1359 51.1169 53.1285 51.3534C53.2265 51.8446 53.1761 52.3537 52.9838 52.8162C52.7915 53.2787 52.466 53.6735 52.0486 53.9505C39.0936 58.0657 25.1743 58.0147 12.2498 53.8046Z" fill="white"/>
</g>
<path d="M65.215 16.1786C65.8591 23.1861 65.6809 30.2449 64.6836 37.211C64.6161 37.6547 64.4589 38.0799 64.2216 38.4608C63.9843 38.8418 63.6719 39.1705 63.3035 39.4267C62.935 39.683 62.5182 39.8616 62.0784 39.9515C61.6387 40.0413 61.1852 40.0407 60.7457 39.9495C57.4267 39.2955 57.9185 37.0959 57.9185 37.0959C58.6707 30.2534 58.6593 23.3484 57.8843 16.5084C58.0149 15.658 58.4031 14.8679 58.9966 14.2449C59.5901 13.622 60.3603 13.1959 61.2035 13.0242C64.0866 12.5823 65.2179 16.1786 65.2179 16.1786" fill="#425473"/>
</g>
<defs>
<filter id="filter0_d_3_14375" x="5.08095" y="36.8158" width="54.0475" height="28.9327" filterUnits="userSpaceOnUse" color-interpolation-filters="sRGB">
<feFlood flood-opacity="0" result="BackgroundImageFix"/>
<feColorMatrix in="SourceAlpha" type="matrix" values="0 0 0 0 0 0 0 0 0 0 0 0 0 0 0 0 0 0 127 0" result="hardAlpha"/>
<feOffset dy="3"/>
<feGaussianBlur stdDeviation="3"/>
<feColorMatrix type="matrix" values="0 0 0 0 0 0 0 0 0 0 0 0 0 0 0 0 0 0 0.161 0"/>
<feBlend mode="normal" in2="BackgroundImageFix" result="effect1_dropShadow_3_14375"/>
<feBlend mode="normal" in="SourceGraphic" in2="effect1_dropShadow_3_14375" result="shape"/>
</filter>
<filter id="filter1_d_3_14375" x="5.08095" y="36.8158" width="54.0475" height="28.9327" filterUnits="userSpaceOnUse" color-interpolation-filters="sRGB">
<feFlood flood-opacity="0" result="BackgroundImageFix"/>
<feColorMatrix in="SourceAlpha" type="matrix" values="0 0 0 0 0 0 0 0 0 0 0 0 0 0 0 0 0 0 127 0" result="hardAlpha"/>
<feOffset dy="3"/>
<feGaussianBlur stdDeviation="3"/>
<feColorMatrix type="matrix" values="0 0 0 0 0 0 0 0 0 0 0 0 0 0 0 0 0 0 0.161 0"/>
<feBlend mode="normal" in2="BackgroundImageFix" result="effect1_dropShadow_3_14375"/>
<feBlend mode="normal" in="SourceGraphic" in2="effect1_dropShadow_3_14375" result="shape"/>
</filter>
<filter id="filter2_d_3_14375" x="5.05953" y="46.5275" width="54.1177" height="19.4725" filterUnits="userSpaceOnUse" color-interpolation-filters="sRGB">
<feFlood flood-opacity="0" result="BackgroundImageFix"/>
<feColorMatrix in="SourceAlpha" type="matrix" values="0 0 0 0 0 0 0 0 0 0 0 0 0 0 0 0 0 0 127 0" result="hardAlpha"/>
<feOffset dy="3"/>
<feGaussianBlur stdDeviation="3"/>
<feColorMatrix type="matrix" values="0 0 0 0 0 0 0 0 0 0 0 0 0 0 0 0 0 0 0.161 0"/>
<feBlend mode="normal" in2="BackgroundImageFix" result="effect1_dropShadow_3_14375"/>
<feBlend mode="normal" in="SourceGraphic" in2="effect1_dropShadow_3_14375" result="shape"/>
</filter>
</defs>
</svg>
